<svg width="496" height="553" viewBox="0 0 496 553" fill="none" xmlns="http://www.w3.org/2000/svg">
<path d="M302.221 187.53L199.287 18.3391C192.582 6.90193 180.553 0 167.342 0H37.3918C8.79892 0 -9.14558 30.7622 4.85507 55.6084C30.8845 101.554 67.5622 140.795 111.93 169.585C126.917 181.22 145.453 187.53 164.581 187.53H302.221Z" fill="#0074BA"/>
<path d="M457.804 0H327.855C314.643 0 302.614 6.90193 295.909 18.3391L192.975 187.53H330.812C349.94 187.53 368.279 181.22 383.463 169.585C427.831 140.795 464.509 101.751 490.538 55.6084C504.342 30.7622 486.397 0 457.804 0Z" fill="#00A6ED"/>
<path d="M247.444 552.136C356.785 552.136 445.425 461.29 445.425 349.226C445.425 237.161 356.785 146.315 247.444 146.315C138.1 146.315 49.4619 237.161 49.4619 349.226C49.4619 461.29 138.1 552.136 247.444 552.136Z" fill="#9A9A9A"/>
<path d="M247.643 527.684C201.106 527.684 157.329 509.148 124.596 475.428C91.6651 441.709 73.5234 396.946 73.5234 349.225C73.5234 301.505 91.6651 256.742 124.596 223.022C192.43 153.412 302.857 153.412 370.889 223.022C438.723 292.631 438.723 405.82 370.889 475.428C337.76 509.148 293.984 527.684 247.643 527.684ZM247.446 195.021C208.994 195.021 170.344 210.008 141.16 240.178C112.765 269.362 97.1865 308.012 97.1865 349.225C97.1865 390.439 112.765 429.088 141.16 458.273C169.555 487.457 207.416 503.43 247.446 503.43C287.673 503.43 325.337 487.457 353.733 458.273C412.299 398.129 412.299 300.322 353.733 240.178C324.548 210.008 286.096 195.021 247.446 195.021Z" fill="#7A7A7A"/>
<path d="M236.57 364.938V388.585H284.306V414H208.282V362.507C208.282 343.059 217.416 333.335 235.686 333.335H253.366C254.544 333.335 255.502 332.893 256.239 332.009C257.123 331.125 257.565 330.094 257.565 328.915V297.312C257.565 296.133 257.123 295.102 256.239 294.218C255.502 293.334 254.544 292.892 253.366 292.892H240.327C239.148 292.892 238.117 293.334 237.233 294.218C236.496 295.102 236.128 296.133 236.128 297.312V308.583H206.735V297.975C206.735 278.527 215.869 268.803 234.139 268.803H258.67C276.939 268.803 286.074 278.527 286.074 297.975V331.346C286.074 350.794 276.939 360.518 258.67 360.518H240.769C239.59 360.518 238.559 360.96 237.675 361.844C236.938 362.728 236.57 363.759 236.57 364.938Z" fill="#414141"/>
</svg>
