<svg width="92" height="84" viewBox="0 0 92 84" fill="none" xmlns="http://www.w3.org/2000/svg">
<path d="M51.3707 82.943C51.9707 82.043 52.8707 82.043 53.4707 81.443C53.2707 81.043 52.4707 80.843 52.8707 80.143C53.2707 79.543 53.8707 79.243 54.6707 79.243C58.8707 79.143 62.6707 77.943 66.2707 75.843C67.1707 75.343 67.7707 74.543 68.2707 73.643C69.1707 71.743 70.2707 70.043 71.8707 68.543C73.3707 67.143 74.9707 66.543 76.8707 66.243C77.5707 66.143 77.9707 65.943 78.3707 65.243C79.2707 63.543 80.8707 62.343 81.8707 60.643C82.9707 58.743 84.3707 57.043 85.3707 54.943C86.0707 53.343 86.2707 51.943 85.5707 50.243C84.1707 46.643 84.3707 43.043 86.3707 39.643C86.8707 38.843 86.9707 38.043 86.5707 37.243C86.1707 36.543 86.0707 35.743 86.0707 35.043C85.9707 32.943 85.0707 31.043 84.7707 29.043C84.5707 27.943 84.2707 26.943 83.9707 25.743C82.0707 26.643 80.8707 25.143 79.6707 24.343C78.3707 23.543 77.3707 22.343 76.8707 20.743C76.5707 19.443 76.2707 18.143 75.9707 16.843C75.7707 15.943 75.8707 15.143 76.8707 14.743C77.0707 14.643 77.2707 14.443 77.1707 14.243C77.0707 14.043 76.8707 13.943 76.5707 14.043C75.8707 14.443 75.5707 13.943 75.0707 13.443C72.2707 10.443 69.2707 7.64297 65.3707 6.24297C64.6707 5.94297 63.8707 5.74297 63.2707 5.24297C61.9707 4.24297 60.4707 4.34297 59.2707 5.14297C57.9707 5.94297 56.5707 5.94297 55.1707 5.94297C52.5707 6.04297 49.9707 5.84297 47.8707 3.94297C47.6707 3.74297 47.3707 3.64297 47.2707 3.54297C46.9707 2.14297 45.8707 2.24297 44.8707 2.24297C41.9707 2.14297 39.1707 1.54297 36.2707 1.74297C33.8707 1.84297 31.8707 2.74297 29.7707 3.74297C29.5707 3.84297 29.3707 4.04297 29.1707 4.14297C26.6707 7.24297 23.1707 8.74297 19.5707 9.44297C15.9707 10.043 14.1707 12.443 12.2707 14.943C11.4707 16.043 10.9707 17.243 10.0707 18.243C9.17071 19.243 9.07071 20.643 7.97071 21.543C7.67071 21.743 7.87071 22.243 7.97071 22.543C8.67071 27.243 8.17071 31.843 5.67071 35.943C4.87071 37.243 4.17071 38.543 3.57071 39.843C3.47071 40.143 3.37071 40.443 3.27071 40.743C2.77071 44.443 2.87071 48.143 4.17071 51.743C4.47071 52.543 4.87071 53.143 5.47071 53.643C6.87071 54.543 7.77071 55.943 8.77071 57.143C9.57071 58.143 10.1707 59.443 10.3707 60.743C10.6707 62.543 11.6707 63.943 12.0707 65.643C12.1707 66.143 12.4707 66.743 12.3707 67.243C12.0707 68.443 12.7707 68.943 13.6707 69.443C14.5707 69.843 15.3707 70.543 16.4707 70.443C17.0707 70.343 17.7707 70.743 18.0707 71.243C19.3707 73.143 21.4707 73.743 23.2707 74.743C26.6707 76.743 30.4707 78.143 34.0707 79.743C35.1707 80.243 36.0707 80.243 37.0707 79.543C38.8707 78.343 40.8707 77.743 42.9707 77.443C45.7707 77.143 50.2707 78.943 51.9707 81.143C49.7707 82.943 47.0707 83.343 44.3707 83.643C41.9707 83.843 39.4707 84.143 36.9707 83.343C36.0707 83.043 35.3707 82.843 35.1707 81.843C35.0707 81.343 34.7707 81.243 34.4707 81.243C33.1707 81.443 32.1707 80.843 30.9707 80.343C29.4707 79.743 27.8707 79.343 26.3707 78.743C22.7707 77.243 19.2707 75.443 15.9707 73.343C15.1707 72.743 14.3707 72.143 13.6707 71.343C12.1707 69.743 10.1707 69.143 8.47071 67.943C7.37071 67.143 6.67071 66.243 6.17071 65.043C5.27071 62.743 4.17071 60.443 3.77071 58.043C3.47071 56.743 2.77071 55.443 3.57071 54.043C3.97071 53.843 3.67071 53.743 3.57071 53.543C0.970711 49.943 0.870711 45.943 1.37071 41.743C1.37071 40.843 1.67071 40.043 0.570711 39.443C-0.129289 39.043 -0.0292893 38.143 0.0707107 37.443C0.370711 35.443 0.770711 33.543 1.17071 31.643C1.87071 28.743 3.17071 26.143 4.77071 23.643C5.27071 22.943 5.27071 21.643 6.57071 21.743C6.57071 21.743 6.67071 21.543 6.67071 21.443C6.97071 19.443 7.97071 17.343 9.57071 15.643C11.0707 14.043 12.4707 12.443 13.6707 10.643C13.7707 10.443 13.9707 10.143 14.1707 10.143C15.1707 9.74297 15.3707 8.94297 15.3707 7.94297C15.3707 7.24297 15.5707 6.84297 16.1707 6.44297C17.7707 5.34297 19.2707 4.24297 20.9707 3.34297C23.0707 2.24297 25.2707 1.94297 27.5707 1.54297C27.6707 1.54297 27.6707 1.54297 27.7707 1.54297C30.0707 2.74297 32.0707 1.34297 34.1707 0.842968C37.7707 -0.0570319 41.2707 -0.257032 44.8707 0.342968C47.1707 0.642968 49.4707 0.542968 51.7707 0.242968C55.2707 -0.157032 58.5707 0.642968 61.5707 2.54297C62.5707 3.14297 63.5707 3.64297 64.5707 4.14297C68.0707 5.74297 71.1707 8.14297 74.0707 10.643C74.5707 11.043 74.9707 11.643 75.7707 11.343C76.1707 11.143 76.5707 11.443 76.8707 11.843C78.2707 13.343 79.5707 14.943 80.5707 16.743C80.9707 17.543 81.4707 18.043 82.1707 18.543C84.2707 20.043 85.8707 21.843 85.4707 24.743C85.3707 25.243 85.4707 25.843 85.6707 26.343C87.3707 30.243 88.4707 34.243 88.9707 38.443C88.9707 38.943 89.3707 39.043 89.5707 39.143C90.2707 39.643 90.6707 40.243 90.7707 41.043C91.0707 43.543 91.2707 45.943 90.2707 48.343C89.8707 49.243 90.2707 50.443 89.6707 50.843C88.8707 51.343 88.3707 52.043 87.7707 52.643C87.4707 52.943 87.2707 53.343 87.1707 53.743C86.7707 56.843 85.1707 59.343 83.3707 61.843C82.1707 63.443 81.3707 65.343 80.0707 66.743C79.2707 67.643 79.6707 68.543 79.0707 69.243C78.1707 70.343 77.3707 71.643 76.3707 72.643C74.8707 74.043 73.2707 75.043 71.2707 75.443C70.2707 75.643 69.0707 75.943 68.5707 77.243C68.2707 77.943 67.1707 77.943 66.4707 78.443C65.8707 78.843 65.1707 79.043 64.4707 79.243C60.6707 80.243 57.0707 81.643 53.3707 82.943C52.8707 83.143 52.2707 83.343 51.3707 82.943ZM2.97071 36.743C3.67071 36.743 3.77071 36.343 3.87071 36.143C4.97071 32.843 6.27071 29.743 6.67071 26.243C6.77071 25.743 7.17071 25.143 6.37071 24.843C5.77071 24.643 5.37071 25.143 4.97071 25.543C4.57071 25.943 4.47071 26.343 4.37071 26.843C3.97071 28.843 3.57071 30.843 3.27071 32.943C3.07071 34.143 3.07071 35.443 2.97071 36.743ZM83.2707 24.043C82.5707 22.043 81.7707 20.343 80.6707 18.743C80.0707 17.843 79.3707 17.243 78.5707 16.543C78.3707 16.443 78.0707 16.243 77.9707 16.343C77.6707 16.443 77.5707 16.743 77.6707 17.143C77.6707 17.343 77.7707 17.643 77.7707 17.843C78.1707 19.643 80.9707 23.243 82.6707 24.043C82.7707 24.043 82.8707 24.043 83.2707 24.043ZM88.1707 41.543C87.8707 41.643 87.7707 41.643 87.7707 41.643C87.6707 41.743 87.5707 41.943 87.4707 42.143C86.7707 43.843 86.7707 45.643 87.0707 47.443C87.1707 48.043 86.8707 49.043 87.7707 49.143C88.4707 49.243 88.5707 48.243 88.8707 47.643C88.9707 47.443 88.9707 47.043 88.9707 46.743C88.9707 44.943 88.7707 43.243 88.1707 41.543ZM19.2707 7.44297C21.7707 7.14297 25.5707 4.94297 26.4707 3.54297C23.8707 3.34297 21.0707 4.94297 19.2707 7.44297ZM77.6707 68.543C77.0707 68.343 76.9707 68.343 76.8707 68.343C75.0707 69.243 73.3707 70.243 71.7707 71.443C71.4707 71.643 71.1707 72.043 70.9707 72.443C70.7707 72.743 70.6707 73.043 70.9707 73.243C71.1707 73.443 71.4707 73.543 71.7707 73.443C72.1707 73.243 72.6707 73.043 72.9707 72.743C74.6707 71.543 75.8707 69.843 77.6707 68.543ZM5.67071 57.443C5.57071 58.243 5.77071 59.043 6.07071 59.843C6.57071 60.943 7.17071 62.043 7.37071 63.343C7.47071 64.343 7.97071 65.243 8.97071 66.143C8.57071 62.743 7.57071 59.843 5.67071 57.443ZM57.6707 3.04297C55.3707 1.44297 53.2707 1.14297 50.9707 2.04297C53.0707 3.14297 55.0707 3.54297 57.6707 3.04297ZM40.8707 80.943C42.6707 82.543 45.9707 82.143 47.0707 80.243C44.9707 80.243 42.8707 80.243 40.8707 80.943ZM1.47071 38.443C2.77071 37.143 1.37071 35.943 1.57071 34.743C0.970711 36.043 0.970711 36.743 1.47071 38.443ZM54.8707 4.34297C53.0707 4.34297 51.3707 3.74297 49.6707 3.44297C51.0707 4.44297 52.8707 4.74297 54.8707 4.34297ZM39.6707 80.543C39.1707 80.943 38.2707 81.043 38.4707 81.743C38.6707 82.443 39.3707 82.243 39.9707 82.043C39.8707 81.543 39.7707 81.143 39.6707 80.543ZM89.1707 40.243C88.9707 41.443 89.2707 42.143 89.7707 43.143C90.0707 41.443 90.0707 41.443 89.1707 40.243ZM11.3707 66.443C10.8707 67.043 10.6707 67.543 10.9707 68.143C11.6707 67.743 11.5707 67.143 11.3707 66.443ZM48.6707 81.143C48.6707 81.043 48.5707 80.943 48.5707 80.843C48.1707 80.743 48.0707 80.943 47.8707 81.243C47.8707 81.343 47.9707 81.443 47.9707 81.443C48.2707 81.643 48.4707 81.443 48.6707 81.143ZM18.4707 7.54297C18.4707 7.34297 18.4707 7.14297 18.2707 7.14297C17.9707 7.14297 17.7707 7.34297 17.5707 7.54297C17.5707 7.54297 17.6707 7.74297 17.7707 7.74297C17.9707 7.84297 18.3707 7.94297 18.4707 7.54297Z" fill="#FFA31A"/>
<path d="M48.8707 65.1428C48.7707 63.9428 49.1707 62.8427 49.8707 61.9427C51.1707 60.1427 52.6707 58.5427 54.7707 57.5427C55.1707 57.3427 55.5707 57.3428 55.5707 56.7428C55.5707 56.5428 55.6707 56.3427 55.8707 56.3427C57.3707 56.7427 58.2707 55.5427 59.4707 55.0427C61.3707 54.2427 63.1707 54.9427 64.8707 55.4427C65.5707 55.6427 65.8707 56.2427 65.6707 57.0427C65.1707 59.2427 64.3707 61.1428 62.5707 62.6428C61.0707 63.9428 59.4707 65.1428 57.7707 66.1428C55.7707 67.4428 53.5707 67.9427 51.2707 68.0427C49.7707 68.1427 48.6707 67.6428 48.8707 65.1428ZM56.9707 64.2428C58.8707 63.9428 60.3707 62.8428 61.4707 61.2428C60.0707 62.3428 58.3707 63.1428 56.9707 64.2428C56.9707 63.2428 57.8707 63.0428 58.4707 62.6428C60.0707 61.5428 61.7707 60.4428 62.8707 58.7428C62.3707 58.1428 61.6707 58.0428 61.0707 57.6428C59.5707 56.4428 58.1707 56.9427 56.9707 58.0427C54.6707 60.1427 52.6707 62.4427 51.5707 65.4427C52.4707 65.8427 53.2707 65.6428 54.0707 65.2428C54.7707 64.8428 55.4707 64.4428 56.1707 64.1428C56.4707 63.9428 56.8707 63.6428 56.9707 64.2428ZM64.0707 58.4427C65.5707 57.0427 65.4707 56.5427 63.6707 55.9427C63.7707 56.7427 63.8707 57.5427 64.0707 58.4427ZM51.6707 62.9427C50.6707 63.6427 50.6707 63.6427 50.8707 64.5427C51.3707 64.1427 51.5707 63.6427 51.6707 62.9427ZM61.1707 56.0427C61.8707 56.3427 62.3707 56.6427 63.0707 57.0427C62.6707 55.9427 62.1707 55.6427 61.1707 56.0427Z" fill="#FFA31A"/>
<path d="M47.9709 33.9428C47.4709 34.3428 46.8709 34.0428 46.4709 34.4428C47.3709 35.0428 48.8709 35.1428 49.5709 34.5428C50.1709 34.0428 50.2709 33.4428 50.0709 32.7428C49.5709 31.0428 48.3709 30.0428 46.8709 29.3428C46.4709 29.1428 45.9709 29.0428 46.1709 28.3428C46.5709 27.2428 46.8709 27.1428 47.8709 27.8428C48.3709 28.2428 48.8709 28.6428 49.4709 29.0428C51.6709 30.6428 52.1709 32.2428 51.4709 34.9428C51.1709 36.0428 50.9709 37.1428 49.5709 37.3428C49.2709 37.3428 48.9709 37.5428 48.6709 37.4428C47.3709 36.9428 45.9709 36.8428 44.7709 36.2428C43.6709 35.7428 42.5709 35.0428 42.1709 33.6428C42.0709 33.3428 41.9709 32.9428 41.5709 32.7428C40.0709 31.6428 39.7709 30.0428 39.9709 28.4428C40.0709 27.5428 40.3709 26.5428 40.5709 25.6428C40.7709 24.9428 41.2709 24.4428 41.9709 24.4428C42.9709 24.3428 43.9709 24.4428 44.9709 24.2428C45.2709 24.1428 45.6709 24.5428 45.5709 24.7428C44.8709 25.6428 45.8709 26.4428 45.4709 27.3428C45.1709 27.1428 44.7709 26.9428 44.4709 26.7428C43.3709 26.0428 43.3709 26.0428 42.8709 27.1428C42.2709 28.5428 42.6709 29.9428 42.6709 31.3428C42.6709 32.0428 43.3709 32.4428 43.9709 32.7428C44.6709 33.0428 45.4709 33.1428 46.2709 33.3428C46.7709 33.4428 47.4709 33.4428 47.9709 33.9428ZM41.7709 30.2428C41.7709 29.4428 42.1709 28.9428 41.5709 28.4428C41.5709 28.4428 41.2709 28.4428 41.2709 28.5428C40.9709 29.1428 41.0709 29.6428 41.7709 30.2428ZM41.7709 26.3428C41.3709 26.5428 41.1709 26.7428 41.3709 27.1428C41.3709 27.2428 41.5709 27.3428 41.6709 27.3428C42.0709 27.1428 41.9709 26.7428 41.7709 26.3428Z" fill="#FFA31A"/>
<path d="M27.9708 67.0428C27.8708 68.0428 28.5707 68.8428 28.5707 69.8428C28.5707 70.2428 28.7707 70.2428 29.1707 70.2428C30.0707 70.2428 30.1707 71.0428 31.0707 71.4428C29.7707 72.0428 28.6708 71.7428 27.7708 72.1428C27.6708 72.2428 27.4708 72.0428 27.2708 71.9428C25.7708 70.7428 25.1707 68.4428 25.9707 66.5428C26.7707 64.5428 27.9708 63.1428 30.2708 62.9428C31.4708 62.8428 32.2708 61.7428 33.4708 61.6428C33.5708 62.2428 32.7707 62.2428 32.6707 62.7428C32.6707 62.9428 32.7708 63.0428 32.9708 63.1428C33.7708 63.2428 34.3707 63.1428 35.0707 62.4428C35.6707 61.7428 36.6708 61.2428 37.9708 61.3428C37.2708 62.2428 36.2708 62.3428 35.2708 63.1428C35.4708 63.2428 35.6708 63.4428 35.9708 63.5428C36.7708 64.0428 36.7708 64.6428 36.2708 65.2428C35.7708 65.9428 35.9708 66.8428 35.4708 67.5428C34.5708 68.6428 33.7707 69.7428 33.0707 70.9428C32.7707 71.4428 32.3707 71.8428 31.6707 71.5428C31.4707 71.0428 31.8708 70.6428 31.9708 70.2428C32.4708 68.8428 32.4708 68.8428 30.9708 68.6428C30.8708 68.6428 30.7707 68.5428 30.5707 68.3428C31.1707 67.8428 31.4708 67.1428 32.4708 67.6428C32.8708 67.8428 33.3708 67.5428 33.4708 67.1428C33.6708 66.4428 33.8708 65.7428 33.2708 65.1428C32.8708 64.7428 32.4708 64.5428 31.9708 64.8428C30.5708 65.5428 28.9708 65.8428 27.9708 67.0428C27.8708 66.9428 27.7708 66.7428 27.7708 66.6428C27.7708 66.5428 27.8707 66.2428 27.5707 66.3428C27.4707 66.3428 27.2708 66.5428 27.2708 66.7428C27.2708 67.1428 27.6708 67.0428 27.9708 67.0428Z" fill="#FFA31A"/>
<path d="M11.8709 36.1427C11.9709 35.0427 12.1709 33.9427 12.2709 32.8427C12.2709 31.7427 12.4709 30.7427 12.8709 29.5427C13.4709 30.2427 12.8709 31.1427 13.6709 31.5427L13.5709 31.8427C12.6709 31.6427 12.7709 32.2427 12.7709 32.7427C12.7709 33.2427 12.5709 33.8427 13.0709 34.2427C13.3709 34.5427 12.9709 34.6427 12.8709 34.8427C12.5709 35.3427 12.6709 35.7427 12.8709 36.2427C12.9709 36.6427 13.2709 37.0427 13.7709 37.0427C14.2709 37.0427 14.6709 36.7427 14.8709 36.2427C14.9709 35.8427 14.9709 35.4427 15.0709 35.0427C15.1709 34.5427 15.2709 34.0427 14.9709 33.6427C14.6709 33.1427 14.2709 33.8427 13.8709 33.5427C13.7709 33.4427 13.5709 33.3427 13.3709 33.2427C13.9709 32.6427 15.2709 32.7427 14.9709 31.5427C14.6709 30.2427 15.0709 28.6427 13.1709 28.1427C13.4709 26.8427 14.8709 26.9427 15.5709 26.2427C15.9709 25.8427 16.8709 26.7427 17.0709 27.6427C17.3709 29.1427 17.3709 30.6427 17.1709 32.1427C16.9709 33.5427 16.6709 34.8427 16.3709 36.1427C15.9709 37.4427 15.2709 38.5427 14.2709 39.3427C12.7709 40.5427 11.3709 40.1427 10.7709 38.3427C9.87093 35.6427 9.57093 32.9427 10.5709 30.2427C10.8709 29.5427 10.7709 28.7427 10.9709 27.9427C10.9709 27.7427 11.1709 27.5427 11.4709 27.5427C11.8709 27.5427 11.8709 27.9427 11.7709 28.2427C10.9709 30.9427 12.0709 33.5427 11.6709 36.2427C11.5709 36.1427 11.6709 36.1427 11.8709 36.1427ZM14.8709 28.2427C14.7709 29.1427 15.1709 29.5427 15.8709 30.1427C15.6709 29.3427 16.0709 28.9427 16.0709 28.5427C15.7709 28.2427 15.3709 28.4427 14.8709 28.2427ZM12.9709 38.3427C12.9709 38.1427 12.8709 38.0427 12.7709 37.9427C12.5709 37.9427 12.4709 37.9427 12.3709 38.1427C12.2709 38.3427 12.2709 38.4427 12.4709 38.5427C12.6709 38.5427 12.8709 38.5427 12.9709 38.3427Z" fill="#FFA31A"/>
<path d="M32.6708 35.1427C33.6708 40.2427 30.8708 43.3427 27.4708 45.6427C26.4708 46.3427 25.5708 45.9427 24.9708 44.8427C24.4708 44.0427 24.4708 43.0427 24.5708 42.2427C24.8708 39.5427 25.7708 36.9427 27.2708 34.6427C27.8708 33.6427 28.7708 32.9427 29.8708 32.4427C30.7708 32.0427 31.7708 32.2427 32.4708 33.0427C32.6708 33.2427 32.6708 33.4427 32.4708 33.6427C32.0708 34.2427 32.3708 34.7427 32.6708 35.1427ZM25.9708 42.4427C25.8708 44.0427 26.2708 44.3427 27.4708 43.9427C28.2708 43.6427 28.8708 43.2427 29.3708 42.5427C30.2708 41.1427 30.8708 39.6427 31.2708 38.0427C31.4708 37.1427 31.0708 35.4427 30.5708 35.2427C29.9708 34.9427 28.8708 35.6427 28.0708 36.6427C27.3708 37.5427 27.3708 38.7427 26.6708 39.7427C26.1708 40.6427 25.9708 41.6427 25.9708 42.4427Z" fill="#FFA31A"/>
<path d="M30.5706 11.9428C31.1706 11.6428 31.1706 10.5428 31.7706 10.8428C32.3706 11.1428 33.1706 11.3428 33.4706 12.2428C33.5706 12.7428 33.9706 13.1428 34.1706 13.6428C35.0706 15.8428 33.8706 18.0428 31.5706 18.5428C30.0706 18.9428 28.5706 19.4428 27.0706 19.8428C25.8706 20.1428 23.8706 19.4428 23.2706 18.4428C22.9706 18.0428 22.7706 17.6428 22.9706 17.0428C23.6706 14.6428 25.8706 12.2428 28.3706 12.6428C28.9706 12.7428 29.5706 12.6428 30.1706 12.6428C30.3706 12.6428 30.6706 12.6428 30.6706 12.9428C30.6706 13.2428 30.5706 13.4428 30.2706 13.5428C29.2706 13.8428 28.2706 14.2428 27.2706 14.7428C26.9706 14.9428 26.5706 15.0428 26.3706 15.3428C25.9706 15.7428 25.3706 16.2428 25.6706 16.8428C25.9706 17.5428 26.5706 17.0428 27.0706 16.9428C27.9706 16.8428 28.8706 16.8428 29.7706 16.6428C30.3706 16.5428 30.9706 16.3428 31.4706 16.0428C33.3706 15.0428 33.3706 13.0428 31.4706 11.9428C31.2706 12.1428 30.8706 12.0428 30.5706 11.9428ZM32.5706 17.0428C32.0706 17.6428 30.9706 17.2428 30.6706 18.2428C31.4706 18.0428 31.9706 17.5428 32.5706 17.0428Z" fill="#FFA31A"/>
<path d="M63.371 46.8429C64.071 45.7429 63.471 44.9429 62.871 43.9429C62.071 44.4429 61.371 45.1429 60.271 45.3429C60.371 44.5429 61.071 44.2429 61.471 44.1429C62.971 43.6429 63.171 42.4429 63.571 41.1429C64.071 39.1429 65.071 37.2429 67.271 36.4429C67.771 36.2429 68.371 36.1429 68.871 36.4429C69.171 36.6429 69.471 36.9429 69.271 37.3429C69.071 37.6429 68.871 37.8429 68.571 37.6429C67.771 37.0429 67.371 37.6429 66.871 38.0429C66.271 38.5429 65.671 39.0429 65.471 39.9429C65.971 40.1429 66.271 39.3429 66.771 39.7429C66.671 40.5429 65.871 40.9429 65.471 42.0429C66.971 41.3429 68.071 40.4429 69.371 40.0429C70.671 39.6429 71.871 38.7429 73.171 38.0429C74.371 37.4429 75.371 36.2429 77.071 35.9429C76.771 36.6429 76.371 36.8429 75.871 37.1429C74.171 38.2429 72.271 39.1429 70.471 39.9429C69.471 40.3429 68.971 40.8429 69.171 42.0429C69.371 43.1429 69.371 44.3429 68.771 45.4429C68.371 46.1429 67.971 46.5429 67.271 46.7429C65.871 47.3429 64.671 46.9429 63.371 46.8429ZM66.571 45.6429C67.971 44.7429 67.671 43.4429 67.571 42.0429C66.671 41.9429 66.071 42.2429 65.771 43.1429C65.371 44.4429 65.271 44.4429 66.571 45.6429Z" fill="#FFA31A"/>
<path d="M63.4709 19.6429C62.1709 21.3429 62.1709 21.7429 63.5709 23.7429C63.7709 24.0429 64.1709 24.3429 63.9709 24.6429C63.2709 26.0429 63.8709 27.4429 63.5709 28.8429C63.4709 29.6429 63.4709 30.4429 62.6709 30.8429C61.9709 31.2429 60.6709 30.8429 59.8709 30.0429C58.8709 28.9429 58.1709 27.6429 58.0709 26.0429C58.0709 24.3429 57.5709 22.7429 58.0709 21.0429C58.1709 20.5429 58.3709 20.0429 58.6709 19.5429C59.1709 18.7429 59.9709 18.5429 60.4709 19.2429C61.2709 20.3429 62.0709 20.1429 63.0709 19.5429C63.1709 19.5429 63.3709 19.4429 63.4709 19.6429ZM62.2709 29.3429C62.3709 26.9429 61.6709 25.0429 61.3709 23.0429C61.3709 22.9429 61.2709 22.8429 61.1709 22.7429C60.8709 22.3429 60.3709 22.1429 59.8709 22.2429C59.4709 22.3429 59.2709 22.8429 59.2709 23.2429C59.2709 24.1429 59.3709 25.0429 59.4709 25.9429C59.7709 27.4429 60.4709 28.5429 62.2709 29.3429Z" fill="#FFA31A"/>
<path d="M16.071 52.7428C16.171 54.0428 15.671 55.4428 14.971 56.8428C14.271 58.3428 12.871 58.6428 11.571 57.5428C10.671 56.7428 10.171 55.7428 10.071 54.5428C9.97101 53.7428 9.97101 52.9428 9.57101 52.1428C8.97101 50.9428 10.271 48.9428 11.771 48.2428C13.171 47.6428 14.671 48.1428 15.471 49.5428C15.971 50.5428 16.171 51.3428 16.071 52.7428ZM13.071 53.9428C12.871 53.0428 12.771 52.3428 12.571 51.5428C12.471 51.2428 12.271 51.1428 11.971 51.1428C11.871 51.1428 11.571 51.2428 11.571 51.3428C11.271 52.7428 11.071 54.0428 11.771 55.3428C12.171 56.0428 12.771 56.0428 13.271 55.3428C13.771 54.6428 14.071 53.8428 13.971 52.9428C13.971 52.7428 13.871 52.7428 13.771 52.7428C13.571 53.1428 13.571 53.6428 13.071 53.9428ZM11.471 49.6428C12.471 50.1428 13.371 50.5428 14.271 51.0428C14.671 50.1428 14.271 49.6428 13.571 49.2428C12.671 48.6428 12.071 48.9428 11.471 49.6428Z" fill="#FFA31A"/>
<path d="M47.0707 17.8428C44.3707 17.7428 42.9707 16.3428 42.9707 13.8428C42.9707 13.4428 44.1707 12.4428 44.6707 12.4428C44.8707 12.4428 45.1707 12.5428 45.3707 12.5428C46.0707 12.6428 46.6707 11.4428 47.1707 12.1428C47.5707 12.8428 48.1707 12.8428 48.7707 13.1428C49.2707 13.4428 49.7707 13.8428 49.9707 14.4428C50.6707 16.4428 50.2707 17.3428 48.0707 17.7428C47.5707 17.8428 47.1707 17.8428 47.0707 17.8428ZM46.8707 15.5428C47.7707 15.5428 48.4707 15.2428 48.2707 14.8428C48.0707 14.3428 47.6707 14.0428 47.0707 14.0428C46.4707 14.0428 45.6707 14.6428 45.7707 14.9428C45.9707 15.5428 46.4707 15.4428 46.8707 15.5428Z" fill="#FFA31A"/>
<path d="M59.271 18.2426C60.271 17.1426 61.371 16.7426 62.271 16.1426C62.571 15.9426 62.871 15.7426 62.971 15.1426C63.171 12.6426 63.171 12.6426 64.971 11.1426C65.671 11.4426 65.971 12.1426 66.471 12.6426C66.971 13.1426 67.471 13.6426 68.271 13.7426C68.371 13.7426 68.371 13.7426 68.471 13.7426C69.671 14.1426 70.571 15.2426 70.271 16.0426C69.971 17.0426 67.971 18.1426 66.971 17.7426C65.971 17.2426 64.871 16.9426 63.871 16.5426C63.271 16.2426 62.871 16.3426 62.471 16.6426C61.471 17.2426 60.571 17.8426 59.271 18.2426ZM64.171 13.5426C64.371 15.2426 65.371 15.8426 66.371 16.2426C66.771 16.4426 67.371 16.7426 67.671 16.2426C67.871 15.7426 67.671 15.2426 67.171 14.8426C66.771 14.5426 66.371 14.2426 65.871 14.3426C65.271 14.5426 64.771 14.1426 64.171 13.5426Z" fill="#FFA31A"/>
<path d="M78.7709 54.1427C78.9709 55.1427 78.5709 56.0427 78.0709 56.8427C76.8709 58.4427 75.5709 58.5427 74.2709 56.9427C73.6709 56.2427 73.3709 55.3427 73.6709 54.2427C73.8709 53.4427 74.1709 52.6427 74.4709 51.8427C74.8709 50.8427 75.7709 50.7427 76.6709 50.7427C77.6709 50.7427 77.9709 51.3427 78.3709 52.0427C78.6709 52.7427 78.8709 53.4427 78.7709 54.1427ZM75.6709 56.7427C77.3709 56.7427 77.7709 56.2427 77.9709 54.1427C76.9709 55.0427 76.8709 56.3427 75.6709 56.7427ZM76.1709 54.8427C76.6709 54.6427 77.0709 54.4427 76.9709 53.7427C76.3709 53.8427 76.2709 54.3427 76.1709 54.8427Z" fill="#FFA31A"/>
<path d="M72.8706 41.7427C72.9706 41.2427 73.3706 41.0427 73.7706 40.9427C74.6706 40.5427 75.3706 40.0427 75.6706 39.0427C75.9706 38.1427 76.9706 38.0427 77.5706 37.5427C77.9706 37.2427 79.0706 38.0427 78.9706 38.6427C78.6706 40.5427 78.9706 42.5427 77.3706 44.0427C76.8706 44.5427 76.4706 45.0427 75.6706 44.8427C74.9706 44.6427 74.9706 43.9427 74.8706 43.3427C74.8706 43.2427 74.8706 43.2427 74.8706 43.1427C74.6706 41.6427 74.6706 41.6427 73.1706 41.9427C73.0706 41.8427 72.9706 41.7427 72.8706 41.7427ZM77.0706 41.7427C77.5706 41.3427 77.5706 40.8427 77.3706 40.0427C76.9706 40.7427 76.8706 41.2427 77.0706 41.7427Z" fill="#FFA31A"/>
<path d="M55.471 47.5425C55.371 47.0425 54.571 46.9425 54.971 46.4425C55.271 46.0425 55.771 46.1425 56.071 46.4425C56.571 46.8425 57.071 46.5425 57.671 46.7425C57.271 47.2425 57.171 47.7425 57.171 48.3425C57.171 49.9425 55.471 51.3425 53.971 51.3425C53.371 51.3425 52.171 49.9425 52.271 49.4425C52.271 49.1425 52.671 48.9425 52.971 49.0425C53.371 49.2425 53.671 49.5425 54.071 49.4425C54.371 49.3425 54.771 49.2425 54.471 48.8425C53.471 47.2425 54.871 47.8425 55.471 47.5425Z" fill="#FFA31A"/>
<path d="M40.7707 50.9427C40.7707 52.3427 39.2707 53.6427 37.8707 53.4427C37.0707 53.3427 36.5707 52.3427 36.8707 51.4427C37.1707 50.6427 37.5707 49.8427 38.3707 49.2427C39.6707 48.3427 40.6707 48.7427 40.7707 50.4427C40.7707 50.6427 40.7707 50.7427 40.7707 50.9427ZM38.5707 52.2427C39.3707 52.0427 39.8707 51.6427 40.0707 50.9427C40.1707 50.7427 40.1707 50.4427 39.9707 50.2427C39.7707 50.0427 39.5707 50.2427 39.3707 50.3427C38.8707 50.9427 38.4707 51.4427 38.5707 52.2427Z" fill="#FFA31A"/>
<path d="M38.9707 60.3429C40.6707 59.3429 42.3707 58.3429 44.1707 57.4429C44.2707 57.5429 44.2707 57.6429 44.3707 57.7429C42.7707 58.8429 41.1707 60.1429 39.2707 60.7429C39.0707 60.5429 39.0707 60.4429 38.9707 60.3429Z" fill="#FFA31A"/>
<path d="M25.0707 64.0429C24.1707 64.5429 23.3707 64.9429 22.4707 64.9429C22.1707 64.9429 21.9707 64.8429 21.9707 64.5429C21.9707 64.2429 22.1707 63.8429 22.4707 63.9429C23.3707 64.5429 24.1707 63.7429 25.0707 64.0429Z" fill="#FFA31A"/>
<path d="M39.1706 69.4429C39.3706 70.3429 38.0706 70.3429 38.4706 71.1429C38.4706 71.2429 38.0706 71.4429 37.8706 71.3429C37.6706 71.2429 37.5706 71.0429 37.6706 70.7429C37.8706 69.8429 38.4706 69.6429 39.1706 69.4429Z" fill="#FFA31A"/>
<path d="M16.6709 44.643C16.3709 45.043 15.9709 45.043 15.6709 45.143C15.2709 45.243 14.7709 45.443 14.6709 44.843C14.6709 44.343 15.2709 44.243 15.6709 44.343C15.9709 44.343 16.4709 44.243 16.6709 44.643Z" fill="#FFA31A"/>
<path d="M57.2708 13.543C57.8708 13.943 59.0708 13.543 58.7708 14.943C57.9708 14.843 57.2708 14.643 57.0708 13.643C57.1708 13.643 57.1708 13.543 57.2708 13.543Z" fill="#FFA31A"/>
<path d="M30.771 4.84287C31.671 4.44287 32.471 3.94287 33.671 3.94287C32.671 4.74287 31.871 5.14287 30.771 4.84287Z" fill="#FFA31A"/>
<path d="M46.0707 52.6426C45.3707 53.4426 44.8707 53.9426 43.9707 53.7426C44.4707 53.0426 45.0707 52.7426 46.0707 52.6426Z" fill="#FFA31A"/>
<path d="M39.771 62.0426C40.271 61.7426 40.571 61.0426 41.371 61.4426C40.971 62.1426 40.371 62.1426 39.771 62.0426Z" fill="#FFA31A"/>
<path d="M51.6706 74.1427C51.2706 74.5427 50.7706 74.9427 49.8706 75.1427C50.4706 74.2427 50.8706 73.9427 51.6706 74.1427Z" fill="#FFA31A"/>
<path d="M31.5707 60.1426C31.6707 61.3426 30.8707 61.2426 29.9707 61.3426C30.3707 60.5426 31.0707 60.5426 31.5707 60.1426Z" fill="#FFA31A"/>
<path d="M38.0708 13.2427C38.7708 13.7427 38.9708 14.2427 38.6708 14.8427C38.6708 14.9427 38.4708 14.9427 38.3708 14.9427C37.8708 14.5427 38.0708 13.9427 38.0708 13.2427Z" fill="#FFA31A"/>
<path d="M40.5708 57.0429C41.1708 56.2429 41.1708 56.2429 42.2708 55.9429C41.6708 56.5429 41.6708 56.5429 40.5708 57.0429Z" fill="#FFA31A"/>
<path d="M37.771 57.043C38.271 56.343 38.871 56.143 39.471 56.043C38.971 56.743 38.971 56.743 37.771 57.043Z" fill="#FFA31A"/>
<path d="M70.671 26.043C70.371 26.643 69.771 26.643 69.271 26.843C69.471 26.343 70.071 26.343 70.671 26.043Z" fill="#FFA31A"/>
<path d="M72.871 13.543C73.371 13.743 73.571 14.043 73.471 14.443C73.471 14.543 73.271 14.643 73.171 14.543C72.871 14.343 72.771 14.043 72.871 13.543Z" fill="#FFA31A"/>
<path d="M46.2709 72.3427C45.7709 72.8427 45.3709 73.1427 44.6709 73.0427C45.0709 72.4427 45.4709 72.0427 46.2709 72.3427Z" fill="#FFA31A"/>
<path d="M47.6709 76.443C48.1709 76.043 48.6709 75.843 49.3709 75.943C48.8709 76.743 48.2709 76.643 47.6709 76.443Z" fill="#FFA31A"/>
<path d="M40.0709 57.4429C39.7709 58.1429 39.3709 58.3429 38.6709 58.3429C38.8709 57.6429 39.2709 57.4429 40.0709 57.4429Z" fill="#FFA31A"/>
<path d="M46.7709 58.043C46.0709 58.543 45.7709 59.043 45.1709 59.043C45.4709 58.243 45.4709 58.243 46.7709 58.043Z" fill="#FFA31A"/>
<path d="M73.3708 59.6427C73.2708 59.8427 73.3708 60.2427 72.9708 60.2427C72.7708 60.2427 72.6708 60.0427 72.6708 59.8427C72.6708 59.5427 72.5708 59.1427 72.9708 59.1427C73.2708 59.0427 73.4708 59.3427 73.3708 59.6427Z" fill="#FFA31A"/>
<path d="M35.0706 60.543C34.9706 61.243 34.6706 61.443 34.0706 61.443C33.9706 61.443 33.8706 61.243 33.9706 61.143C34.1706 60.643 34.5706 60.543 35.0706 60.543Z" fill="#FFA31A"/>
<path d="M14.1709 15.543C13.9709 16.143 13.5709 16.543 12.6709 16.443C13.2709 16.043 13.6709 15.743 14.1709 15.543Z" fill="#FFA31A"/>
<path d="M42.0708 54.7429C42.2708 54.1429 42.7708 54.0429 43.1708 53.9429C43.3708 54.0429 43.3708 54.2429 43.2708 54.4429C42.9708 54.8429 42.5708 54.9429 42.0708 54.7429Z" fill="#FFA31A"/>
<path d="M72.0708 11.8428C72.7708 11.9428 73.0708 12.1428 73.0708 12.8428C72.4708 12.7428 72.1708 12.4428 72.0708 11.8428Z" fill="#FFA31A"/>
<path d="M70.4707 67.6427C70.5707 67.7427 70.6707 67.8427 70.4707 67.9427C70.1707 68.1427 70.0707 68.7427 69.5707 68.5427C69.4707 68.5427 69.4707 68.3427 69.4707 68.2427C69.6707 67.6427 69.9707 67.5427 70.4707 67.6427Z" fill="#FFA31A"/>
<path d="M54.5708 72.143C55.0708 71.743 55.5708 71.543 56.3708 71.543C55.6708 72.043 55.4708 72.543 54.5708 72.143Z" fill="#FFA31A"/>
<path d="M19.7709 48.0428C19.5709 48.0428 19.1709 48.1428 19.1709 47.8428C19.1709 47.7428 19.4709 47.5428 19.6709 47.4428C19.8709 47.3428 20.1709 47.4428 20.1709 47.7428C20.2709 48.0428 19.9709 47.9428 19.7709 48.0428Z" fill="#FFA31A"/>
<path d="M48.3706 52.2429C48.0706 52.1429 47.8706 51.9429 47.8706 51.6429C47.9706 51.3429 48.1706 51.2429 48.4706 51.4429C48.6706 51.5429 49.1706 51.5429 48.9706 51.9429C48.9706 52.1429 48.6706 52.2429 48.3706 52.2429Z" fill="#FFA31A"/>
<path d="M74.671 63.8428C74.871 63.9428 75.171 63.9428 75.071 64.2428C75.071 64.4428 74.871 64.6428 74.671 64.7428C74.271 64.7428 74.171 64.4428 74.171 64.2428C74.071 63.9428 74.371 63.8428 74.671 63.8428Z" fill="#FFA31A"/>
<path d="M57.0709 13.6429C56.8709 13.4429 56.6709 13.3429 56.5709 13.1429C56.3709 12.9429 56.3709 12.7429 56.5709 12.5429C56.8709 12.3429 57.1709 12.4429 57.1709 12.8429C57.1709 13.0429 57.2709 13.2429 57.2709 13.3429C57.1709 13.5429 57.1709 13.6429 57.0709 13.6429Z" fill="#FFA31A"/>
<path d="M58.9709 33.243C58.4709 32.843 58.1709 32.543 58.1709 32.043C58.6709 32.143 58.8709 32.543 58.9709 33.243Z" fill="#FFA31A"/>
<path d="M60.0706 35.2426C59.4706 34.9426 59.7706 34.4426 59.3706 34.1426C59.8706 34.2426 60.0706 34.5426 60.0706 35.2426Z" fill="#FFA31A"/>
<path d="M5.9707 44.2426C5.9707 44.1426 5.9707 44.1426 6.1707 44.1426C6.2707 44.1426 6.3707 44.2426 6.3707 44.3426C6.3707 44.4426 6.3707 44.5426 6.2707 44.6426C6.1707 44.5426 6.0707 44.3426 5.9707 44.2426Z" fill="#FFA31A"/>
<path d="M11.7706 44.943C11.6706 44.943 11.5706 44.943 11.4706 44.943C11.3706 44.943 11.4706 44.843 11.5706 44.743C11.6706 44.643 11.7706 44.643 11.8706 44.743C11.8706 44.843 11.7706 44.843 11.7706 44.943Z" fill="#FFA31A"/>
<path d="M76.3707 47.9428C76.1707 47.8428 75.9707 47.7428 75.9707 47.7428C75.9707 47.4428 76.0707 47.3428 76.3707 47.2428C76.5707 47.1428 76.7707 47.2428 76.7707 47.4428C76.6707 47.6428 76.4707 47.8428 76.3707 47.9428Z" fill="#FFA31A"/>
<path d="M35.7708 4.44268C35.6708 4.64268 35.5708 4.84268 35.2708 4.84268C35.1708 4.84268 34.8708 4.84268 34.9708 4.64268C35.0708 4.44268 35.2708 4.34268 35.4708 4.24268C35.6708 4.24268 35.7708 4.34268 35.7708 4.44268Z" fill="#FFA31A"/>
<path d="M51.771 53.2426C51.971 52.9426 52.271 52.5426 52.571 52.8426C52.771 53.1426 52.371 53.2426 52.071 53.3426C51.971 53.4426 51.871 53.3426 51.771 53.2426Z" fill="#FFA31A"/>
<path d="M78.871 58.4426C78.871 58.5426 78.871 58.7426 78.671 58.8426C78.371 58.9426 78.271 58.7426 78.271 58.5426C78.271 58.3426 78.371 58.2426 78.571 58.1426C78.671 58.1426 78.771 58.2426 78.871 58.4426Z" fill="#FFA31A"/>
<path d="M36.4709 60.0427C36.2709 60.0427 36.1709 59.9427 36.1709 59.7427C36.2709 59.4427 36.4709 59.2427 36.7709 59.2427C36.9709 59.2427 37.1709 59.2427 37.0709 59.5427C36.8709 59.7427 36.7709 60.0427 36.4709 60.0427Z" fill="#FFA31A"/>
<path d="M51.2709 22.0428C50.9709 22.3428 50.6709 22.6428 50.1709 22.4428C50.3709 21.9428 50.6709 21.7428 51.2709 22.0428Z" fill="#FFA31A"/>
<path d="M7.17061 34.8427C7.37061 35.0427 7.5706 35.2427 7.4706 35.5427C7.4706 35.6427 7.27061 35.6427 7.17061 35.5427C7.07061 35.3427 6.97061 35.1427 6.87061 34.9427C6.97061 34.8427 7.07061 34.7427 7.17061 34.8427Z" fill="#FFA31A"/>
<path d="M32.6709 35.1426C33.1709 35.2426 33.4709 34.7426 34.0709 34.6426C33.7709 35.5426 33.1709 35.2426 32.6709 35.1426Z" fill="#FFA31A"/>
<path d="M31.5708 60.1427C32.0708 60.1427 32.3708 59.4427 32.9708 59.7427C32.6708 60.4427 32.1708 60.2427 31.5708 60.1427Z" fill="#FFA31A"/>
<path d="M56.0708 19.5426C56.0708 19.3426 56.2708 19.1426 56.5708 19.1426C56.7708 19.1426 56.9708 19.1426 56.9708 19.3426C56.9708 19.6426 56.7708 19.7426 56.4708 19.8426C56.3708 19.7426 56.1708 19.7426 56.0708 19.5426Z" fill="#FFA31A"/>
</svg>
