<svg width="92" height="80" viewBox="0 0 92 80" fill="none" xmlns="http://www.w3.org/2000/svg">
<path d="M28.9287 10.6992C31.8789 10.6992 34.2783 8.29932 34.2783 5.34961C34.2783 2.3999 31.8789 0 28.9287 0C25.9785 0 23.5791 2.3999 23.5791 5.34961C23.5791 8.29932 25.9785 10.6992 28.9287 10.6992ZM28.9287 1C31.3271 1 33.2783 2.95117 33.2783 5.34961C33.2783 7.74805 31.3271 9.69922 28.9287 9.69922C26.5303 9.69922 24.5791 7.74805 24.5791 5.34961C24.5791 2.95117 26.5303 1 28.9287 1Z" fill="#D3B89C"/>
<path d="M14.4515 15.3179C14.5452 15.4766 14.7122 15.565 14.8831 15.565C14.9691 15.565 15.057 15.543 15.1361 15.4962C15.3743 15.357 15.4544 15.0504 15.3148 14.8121L14.2347 12.9688C14.0941 12.7301 13.7865 12.651 13.5501 12.7906C13.3118 12.9298 13.2318 13.2364 13.3714 13.4747L14.4515 15.3179Z" fill="#D3B89C"/>
<path d="M16.7969 19.1428C16.8897 19.3015 17.0567 19.3894 17.2276 19.3894C17.3145 19.3894 17.4014 19.3674 17.4815 19.3205C17.7188 19.1804 17.7989 18.8737 17.6583 18.6359L16.6085 16.8508C16.4678 16.611 16.1612 16.5339 15.9239 16.6731C15.6866 16.8132 15.6065 17.1198 15.7471 17.3576L16.7969 19.1428Z" fill="#D3B89C"/>
<path d="M12.682 18.2677C12.7679 18.2677 12.8558 18.2457 12.9349 18.1988L14.7699 17.1231C15.0081 16.9835 15.0882 16.6773 14.9486 16.439C14.807 16.2003 14.5003 16.1212 14.264 16.2608L12.429 17.3365C12.1908 17.4761 12.1107 17.7823 12.2503 18.0206C12.3441 18.1793 12.5111 18.2677 12.682 18.2677Z" fill="#D3B89C"/>
<path d="M16.7249 15.809C16.8118 15.809 16.9007 15.7865 16.9808 15.7387L18.6048 14.7729C18.8421 14.6317 18.9202 14.3251 18.7786 14.0878C18.637 13.8505 18.3294 13.7714 18.0931 13.9135L16.4691 14.8793C16.2317 15.0204 16.1536 15.327 16.2952 15.5644C16.389 15.7216 16.555 15.809 16.7249 15.809Z" fill="#D3B89C"/>
<path d="M73.2988 14.2409C73.3974 14.3483 73.5322 14.4025 73.6669 14.4025C73.788 14.4025 73.9091 14.3591 74.0048 14.2707C74.2089 14.0842 74.2216 13.7678 74.0351 13.5641L73.1884 12.6423C73.0009 12.4382 72.6845 12.426 72.4824 12.6125C72.2783 12.799 72.2656 13.1154 72.4521 13.319L73.2988 14.2409Z" fill="#D3B89C"/>
<path d="M75.8017 16.9653C75.9003 17.0728 76.0351 17.127 76.1699 17.127C76.291 17.127 76.4121 17.0835 76.5078 16.9951C76.7119 16.8086 76.7246 16.4922 76.538 16.2886L75.6914 15.3667C75.5039 15.1631 75.1884 15.1504 74.9853 15.3369C74.7812 15.5234 74.7685 15.8398 74.955 16.0435L75.8017 16.9653Z" fill="#D3B89C"/>
<path d="M72.6718 16.979C72.7929 16.979 72.914 16.9356 73.0097 16.8472L73.9316 16.0005C74.1357 15.814 74.1484 15.4976 73.9619 15.294C73.7744 15.0903 73.458 15.0776 73.2558 15.2642L72.3339 16.1108C72.1298 16.2974 72.1171 16.6138 72.3037 16.8174C72.4023 16.9248 72.5371 16.979 72.6718 16.979Z" fill="#D3B89C"/>
<path d="M75.3964 14.4756C75.5175 14.4756 75.6386 14.4321 75.7343 14.3438L76.6562 13.4971C76.8603 13.3106 76.873 12.9941 76.6865 12.7905C76.5 12.5869 76.1826 12.5742 75.9804 12.7607L75.0585 13.6074C74.8544 13.794 74.8418 14.1104 75.0283 14.314C75.1269 14.4214 75.2617 14.4756 75.3964 14.4756Z" fill="#D3B89C"/>
<path d="M15.9189 55.5864C10.7041 55.5864 6.46191 59.8291 6.46191 65.0439C6.46191 70.2588 10.7041 74.5015 15.9189 74.5015C21.1338 74.5015 25.377 70.2588 25.377 65.0439C25.377 59.8291 21.1338 55.5864 15.9189 55.5864ZM17.8624 56.8206L17.6719 57.1484H15.9189H14.166L13.9755 56.8207C14.6006 56.6729 15.2493 56.5864 15.9189 56.5864C16.5887 56.5864 17.2372 56.6728 17.8624 56.8206ZM13.9254 73.2543L14.166 72.8403H15.9189H17.6719L17.9125 73.2543C17.272 73.41 16.6067 73.5015 15.9189 73.5015C15.2312 73.5015 14.5659 73.41 13.9254 73.2543ZM18.8939 72.951L18.3926 72.0889C18.3027 71.9351 18.1377 71.8403 17.96 71.8403H15.9189H13.8779C13.7002 71.8403 13.5352 71.9351 13.4453 72.0889L12.9441 72.9509C9.74646 71.7433 7.46191 68.6594 7.46191 65.0439C7.46191 61.4106 9.7691 58.3144 12.9916 57.1196L13.4453 57.8999C13.5352 58.0537 13.7002 58.1484 13.8779 58.1484H15.9189H17.96C18.1377 58.1484 18.3027 58.0537 18.3926 57.8999L18.8464 57.1194C22.0696 58.314 24.377 61.4105 24.377 65.0439C24.377 68.6595 22.0922 71.7437 18.8939 72.951Z" fill="#D3B89C"/>
<path d="M21.9482 62.4678C21.8398 62.2148 21.5439 62.0947 21.292 62.2051C21.0381 62.3135 20.9199 62.6074 21.0283 62.8613C21.3242 63.5518 21.4736 64.2856 21.4736 65.0439C21.4736 68.1064 18.9814 70.5981 15.9189 70.5981C12.8564 70.5981 10.3652 68.1064 10.3652 65.0439C10.3652 61.9814 12.8564 59.4897 15.9189 59.4897C17.2363 59.4897 18.5137 59.959 19.5156 60.8115C19.7266 60.9897 20.042 60.9658 20.2207 60.7549C20.3994 60.5444 20.374 60.229 20.1641 60.0498C18.9814 59.0439 17.4736 58.4897 15.9189 58.4897C12.3057 58.4897 9.36523 61.4302 9.36523 65.0439C9.36523 68.6577 12.3057 71.5981 15.9189 71.5981C19.5332 71.5981 22.4736 68.6577 22.4736 65.0439C22.4736 64.1499 22.2969 63.2832 21.9482 62.4678Z" fill="#D3B89C"/>
<path d="M18.2354 65.0439C18.2354 63.7666 17.1963 62.7271 15.9189 62.7271C14.6416 62.7271 13.6025 63.7666 13.6025 65.0439C13.6025 66.3213 14.6416 67.3604 15.9189 67.3604C17.1963 67.3604 18.2354 66.3213 18.2354 65.0439ZM15.9189 66.3604C15.1934 66.3604 14.6025 65.77 14.6025 65.0439C14.6025 64.3179 15.1934 63.7271 15.9189 63.7271C16.6445 63.7271 17.2354 64.3179 17.2354 65.0439C17.2354 65.77 16.6445 66.3604 15.9189 66.3604Z" fill="#D3B89C"/>
<path d="M16.4189 61.3882V60.5366C16.4189 60.2603 16.1953 60.0366 15.9189 60.0366C15.6426 60.0366 15.4189 60.2603 15.4189 60.5366V61.3882C15.4189 61.6646 15.6426 61.8882 15.9189 61.8882C16.1953 61.8882 16.4189 61.6646 16.4189 61.3882Z" fill="#D3B89C"/>
<path d="M14.0919 62.3778C14.1778 62.3778 14.2638 62.3563 14.3419 62.3104C14.5811 62.1722 14.6632 61.866 14.5245 61.6273L14.0977 60.89C13.9581 60.6492 13.6495 60.5696 13.4151 60.7078C13.1759 60.846 13.0938 61.1522 13.2325 61.3909L13.6593 62.1282C13.752 62.2884 13.92 62.3778 14.0919 62.3778Z" fill="#D3B89C"/>
<path d="M13.003 62.7835L12.2657 62.3572C12.0304 62.2195 11.7218 62.3001 11.5831 62.5393C11.4444 62.7786 11.5264 63.0842 11.7657 63.2224L12.503 63.6487C12.5811 63.6946 12.668 63.7161 12.753 63.7161C12.9249 63.7161 13.0929 63.6267 13.1856 63.4666C13.3243 63.2273 13.2423 62.9216 13.003 62.7835Z" fill="#D3B89C"/>
<path d="M10.9121 65.0439C10.9121 65.3203 11.1357 65.5439 11.4121 65.5439H12.2637C12.54 65.5439 12.7637 65.3203 12.7637 65.0439C12.7637 64.7676 12.54 64.5439 12.2637 64.5439H11.4121C11.1357 64.5439 10.9121 64.7676 10.9121 65.0439Z" fill="#D3B89C"/>
<path d="M12.0157 67.7976C12.1007 67.7976 12.1866 67.7761 12.2657 67.7307L13.003 67.3049C13.2423 67.1667 13.3243 66.8611 13.1856 66.6218C13.0489 66.3821 12.7432 66.303 12.503 66.4387L11.7657 66.8645C11.5264 67.0027 11.4444 67.3083 11.5831 67.5476C11.6749 67.7082 11.8438 67.7976 12.0157 67.7976Z" fill="#D3B89C"/>
<path d="M13.4151 69.3797C13.4932 69.4256 13.5792 69.4471 13.6651 69.4471C13.837 69.4471 14.005 69.3577 14.0977 69.1976L14.5245 68.4603C14.6632 68.2215 14.5811 67.9153 14.3419 67.7772C14.1065 67.639 13.7979 67.7186 13.6593 67.9593L13.2325 68.6966C13.0938 68.9354 13.1759 69.2415 13.4151 69.3797Z" fill="#D3B89C"/>
<path d="M15.4189 68.6997V69.5513C15.4189 69.8276 15.6426 70.0513 15.9189 70.0513C16.1953 70.0513 16.4189 69.8276 16.4189 69.5513V68.6997C16.4189 68.4233 16.1953 68.1997 15.9189 68.1997C15.6426 68.1997 15.4189 68.4233 15.4189 68.6997Z" fill="#D3B89C"/>
<path d="M17.7403 69.1972C17.8321 69.3578 18.0011 69.4472 18.1729 69.4472C18.2579 69.4472 18.3438 69.4257 18.4229 69.3803C18.6622 69.2421 18.7442 68.9364 18.6055 68.6972L18.1798 67.9599C18.043 67.7201 17.7374 67.6395 17.4972 67.7768C17.2579 67.9149 17.1759 68.2206 17.3145 68.4599L17.7403 69.1972Z" fill="#D3B89C"/>
<path d="M18.835 67.3049L19.5723 67.7307C19.6514 67.7761 19.7374 67.7976 19.8223 67.7976C19.9942 67.7976 20.1632 67.7082 20.255 67.5476C20.3936 67.3083 20.3116 67.0027 20.0723 66.8645L19.335 66.4387C19.0968 66.303 18.7901 66.3821 18.6524 66.6218C18.5138 66.8611 18.5958 67.1667 18.835 67.3049Z" fill="#D3B89C"/>
<path d="M19.0752 65.0439C19.0752 65.3203 19.2988 65.5439 19.5752 65.5439H20.4268C20.7031 65.5439 20.9268 65.3203 20.9268 65.0439C20.9268 64.7676 20.7031 64.5439 20.4268 64.5439H19.5752C19.2988 64.5439 19.0752 64.7676 19.0752 65.0439Z" fill="#D3B89C"/>
<path d="M18.6524 63.4666C18.7452 63.6267 18.9132 63.7161 19.085 63.7161C19.17 63.7161 19.2569 63.6946 19.335 63.6487L20.0723 63.2224C20.3116 63.0842 20.3936 62.7786 20.255 62.5393C20.1163 62.3001 19.8097 62.2195 19.5723 62.3572L18.835 62.7835C18.5958 62.9216 18.5138 63.2273 18.6524 63.4666Z" fill="#D3B89C"/>
<path d="M18.4229 60.7076C18.1847 60.5709 17.878 60.6514 17.7403 60.8907L17.3145 61.628C17.1759 61.8673 17.2579 62.1729 17.4972 62.3111C17.5763 62.3565 17.6622 62.378 17.7472 62.378C17.919 62.378 18.088 62.2886 18.1798 62.128L18.6055 61.3907C18.7442 61.1514 18.6622 60.8458 18.4229 60.7076Z" fill="#D3B89C"/>
<path d="M45.8408 55.5864C40.626 55.5864 36.3828 59.8291 36.3828 65.0439C36.3828 66.1606 36.5762 67.2544 36.957 68.2959C37.0518 68.5552 37.3389 68.6885 37.5986 68.5938C37.8584 68.4985 37.9912 68.2114 37.8965 67.9521C37.5557 67.0215 37.3828 66.043 37.3828 65.0439C37.3828 61.4105 39.6902 58.3141 42.9134 57.1194L43.3672 57.8999C43.457 58.0537 43.6221 58.1484 43.7998 58.1484H45.8408H47.8818C48.0596 58.1484 48.2246 58.0537 48.3145 57.8999L48.7681 57.1196C51.9907 58.3144 54.2979 61.4106 54.2979 65.0439C54.2979 68.6594 52.0133 71.7433 48.8157 72.9509L48.3145 72.0889C48.2246 71.9351 48.0596 71.8403 47.8818 71.8403H45.8408H43.7998C43.6221 71.8403 43.457 71.9351 43.3672 72.0889L42.8633 72.9554C41.6986 72.5181 40.6329 71.8309 39.7412 70.9033C39.5498 70.7026 39.2334 70.6978 39.0342 70.8892C38.835 71.0801 38.8291 71.397 39.0205 71.5957C40.8203 73.4697 43.2432 74.5015 45.8408 74.5015C51.0557 74.5015 55.2979 70.2588 55.2979 65.0439C55.2979 59.8291 51.0557 55.5864 45.8408 55.5864ZM47.5938 57.1484H45.8408H44.0879L43.8973 56.8206C44.5225 56.6728 45.1711 56.5864 45.8408 56.5864C46.5105 56.5864 47.1591 56.6729 47.7843 56.8207L47.5938 57.1484ZM43.8455 73.2572L44.0879 72.8403H45.8408H47.5938L47.8344 73.2543C47.1938 73.41 46.5286 73.5015 45.8408 73.5015C45.1578 73.5015 44.4913 73.4124 43.8455 73.2572Z" fill="#D3B89C"/>
<path d="M45.8408 71.5981C49.4551 71.5981 52.3955 68.6577 52.3955 65.0439C52.3955 61.4302 49.4551 58.4897 45.8408 58.4897C42.2266 58.4897 39.2861 61.4302 39.2861 65.0439C39.2861 68.6577 42.2266 71.5981 45.8408 71.5981ZM45.8408 59.4897C48.9033 59.4897 51.3955 61.9814 51.3955 65.0439C51.3955 68.1064 48.9033 70.5981 45.8408 70.5981C42.7783 70.5981 40.2861 68.1064 40.2861 65.0439C40.2861 61.9814 42.7783 59.4897 45.8408 59.4897Z" fill="#D3B89C"/>
<path d="M45.8408 67.3604C47.1182 67.3604 48.1572 66.3213 48.1572 65.0439C48.1572 63.7666 47.1182 62.7271 45.8408 62.7271C44.5635 62.7271 43.5244 63.7666 43.5244 65.0439C43.5244 66.3213 44.5635 67.3604 45.8408 67.3604ZM45.8408 63.7271C46.5664 63.7271 47.1572 64.3179 47.1572 65.0439C47.1572 65.77 46.5664 66.3604 45.8408 66.3604C45.1152 66.3604 44.5244 65.77 44.5244 65.0439C44.5244 64.3179 45.1152 63.7271 45.8408 63.7271Z" fill="#D3B89C"/>
<path d="M45.8408 61.8882C46.1172 61.8882 46.3408 61.6646 46.3408 61.3882V60.5366C46.3408 60.2603 46.1172 60.0366 45.8408 60.0366C45.5645 60.0366 45.3408 60.2603 45.3408 60.5366V61.3882C45.3408 61.6646 45.5645 61.8882 45.8408 61.8882Z" fill="#D3B89C"/>
<path d="M43.5802 62.128C43.672 62.2886 43.8409 62.378 44.0128 62.378C44.0977 62.378 44.1837 62.3565 44.2628 62.3111C44.502 62.1729 44.5841 61.8673 44.4454 61.628L44.0196 60.8907C43.8829 60.6514 43.5772 60.5709 43.337 60.7076C43.0977 60.8458 43.0157 61.1514 43.1544 61.3907L43.5802 62.128Z" fill="#D3B89C"/>
<path d="M41.6876 63.2224L42.4249 63.6487C42.503 63.6946 42.5899 63.7161 42.6749 63.7161C42.8468 63.7161 43.0147 63.6267 43.1075 63.4666C43.2462 63.2273 43.1641 62.9216 42.9249 62.7835L42.1876 62.3572C41.9522 62.2195 41.6446 62.3001 41.505 62.5393C41.3663 62.7786 41.4483 63.0842 41.6876 63.2224Z" fill="#D3B89C"/>
<path d="M42.6855 65.0439C42.6855 64.7676 42.4619 64.5439 42.1855 64.5439H41.333C41.0566 64.5439 40.833 64.7676 40.833 65.0439C40.833 65.3203 41.0566 65.5439 41.333 65.5439H42.1855C42.4619 65.5439 42.6855 65.3203 42.6855 65.0439Z" fill="#D3B89C"/>
<path d="M42.1876 67.7307L42.9249 67.3049C43.1641 67.1667 43.2462 66.8611 43.1075 66.6218C42.9708 66.3821 42.6651 66.303 42.4249 66.4387L41.6876 66.8645C41.4483 67.0027 41.3663 67.3083 41.505 67.5476C41.5968 67.7082 41.7657 67.7976 41.9376 67.7976C42.0225 67.7976 42.1085 67.7761 42.1876 67.7307Z" fill="#D3B89C"/>
<path d="M44.2628 67.7768C44.0245 67.6395 43.7179 67.7201 43.5802 67.9599L43.1544 68.6972C43.0157 68.9364 43.0977 69.2421 43.337 69.3803C43.4161 69.4257 43.502 69.4472 43.587 69.4472C43.7589 69.4472 43.9278 69.3578 44.0196 69.1972L44.4454 68.4599C44.5841 68.2206 44.502 67.9149 44.2628 67.7768Z" fill="#D3B89C"/>
<path d="M45.8408 68.1997C45.5645 68.1997 45.3408 68.4233 45.3408 68.6997V69.5513C45.3408 69.8276 45.5645 70.0513 45.8408 70.0513C46.1172 70.0513 46.3408 69.8276 46.3408 69.5513V68.6997C46.3408 68.4233 46.1172 68.1997 45.8408 68.1997Z" fill="#D3B89C"/>
<path d="M48.1016 67.9599C47.9639 67.7201 47.6583 67.6395 47.419 67.7768C47.1798 67.9149 47.0977 68.2206 47.2364 68.4599L47.6622 69.1972C47.754 69.3578 47.9229 69.4472 48.0948 69.4472C48.1798 69.4472 48.2657 69.4257 48.3448 69.3803C48.5841 69.2421 48.6661 68.9364 48.5274 68.6972L48.1016 67.9599Z" fill="#D3B89C"/>
<path d="M49.9942 66.8645L49.2569 66.4387C49.0177 66.303 48.711 66.3821 48.5743 66.6218C48.4356 66.8611 48.5177 67.1667 48.7569 67.3049L49.4942 67.7307C49.5733 67.7761 49.6593 67.7976 49.7442 67.7976C49.9161 67.7976 50.085 67.7082 50.1768 67.5476C50.3155 67.3083 50.2335 67.0027 49.9942 66.8645Z" fill="#D3B89C"/>
<path d="M48.9961 65.0439C48.9961 65.3203 49.2197 65.5439 49.4961 65.5439H50.3486C50.625 65.5439 50.8486 65.3203 50.8486 65.0439C50.8486 64.7676 50.625 64.5439 50.3486 64.5439H49.4961C49.2197 64.5439 48.9961 64.7676 48.9961 65.0439Z" fill="#D3B89C"/>
<path d="M48.5743 63.4666C48.6671 63.6267 48.835 63.7161 49.0069 63.7161C49.0919 63.7161 49.1788 63.6946 49.2569 63.6487L49.9942 63.2224C50.2335 63.0842 50.3155 62.7786 50.1768 62.5393C50.0391 62.3001 49.7305 62.2195 49.4942 62.3572L48.7569 62.7835C48.5177 62.9216 48.4356 63.2273 48.5743 63.4666Z" fill="#D3B89C"/>
<path d="M47.419 62.3111C47.4981 62.3565 47.5841 62.378 47.669 62.378C47.8409 62.378 48.0098 62.2886 48.1016 62.128L48.5274 61.3907C48.6661 61.1514 48.5841 60.8458 48.3448 60.7076C48.1075 60.5709 47.7999 60.6514 47.6622 60.8907L47.2364 61.628C47.0977 61.8673 47.1798 62.1729 47.419 62.3111Z" fill="#D3B89C"/>
<path d="M84.1963 65.6763C83.9489 69.0251 81.7299 71.8145 78.7363 72.9505L78.2344 72.0889C78.1455 71.9351 77.9805 71.8403 77.8027 71.8403H75.7627H73.7217C73.5439 71.8403 73.3789 71.9351 73.2891 72.0889L72.7878 72.951C69.5895 71.7436 67.3047 68.6595 67.3047 65.0439C67.3047 61.4105 69.6121 58.3141 72.8353 57.1194L73.2891 57.8999C73.3789 58.0537 73.5439 58.1484 73.7217 58.1484H75.7627H77.8027C77.9805 58.1484 78.1455 58.0537 78.2344 57.8999L78.6939 57.1111C79.5097 57.4127 80.2811 57.8378 80.9844 58.3901C81.2002 58.5605 81.5146 58.5239 81.6865 58.3062C81.8564 58.0889 81.8193 57.7744 81.6016 57.604C79.9219 56.2842 77.9023 55.5864 75.7627 55.5864C70.5479 55.5864 66.3047 59.8291 66.3047 65.0439C66.3047 70.2588 70.5479 74.5015 75.7627 74.5015C80.6885 74.5015 84.8311 70.6577 85.1943 65.7505C85.2139 65.4751 85.0078 65.2349 84.7324 65.2148C84.4619 65.1934 84.2168 65.4009 84.1963 65.6763ZM77.7102 56.8146L77.5156 57.1484H75.7627H74.0098L73.8192 56.8206C74.4444 56.6728 75.093 56.5864 75.7627 56.5864C76.4282 56.5864 77.0792 56.6666 77.7102 56.8146ZM73.7691 73.2543L74.0098 72.8403H75.7627H77.5156L77.7556 73.252C77.1139 73.4092 76.4484 73.5015 75.7627 73.5015C75.075 73.5015 74.4097 73.41 73.7691 73.2543Z" fill="#D3B89C"/>
<path d="M83.7069 62.1365C83.7811 62.3391 83.9726 62.4646 84.1767 62.4646C84.2343 62.4646 84.2919 62.4548 84.3485 62.4339C84.6083 62.3391 84.7411 62.0515 84.6464 61.7927C84.4306 61.2044 84.1552 60.6355 83.828 60.1028C83.6845 59.867 83.3769 59.7962 83.1405 59.9382C82.9052 60.0828 82.8319 60.3904 82.9765 60.6262C83.2685 61.1023 83.5145 61.6106 83.7069 62.1365Z" fill="#D3B89C"/>
<path d="M75.7627 58.4897C72.1484 58.4897 69.208 61.4302 69.208 65.0439C69.208 68.6577 72.1484 71.5981 75.7627 71.5981C79.376 71.5981 82.3164 68.6577 82.3164 65.0439C82.3164 61.4302 79.376 58.4897 75.7627 58.4897ZM75.7627 70.5981C72.7002 70.5981 70.208 68.1064 70.208 65.0439C70.208 61.9814 72.7002 59.4897 75.7627 59.4897C78.8252 59.4897 81.3164 61.9814 81.3164 65.0439C81.3164 68.1064 78.8252 70.5981 75.7627 70.5981Z" fill="#D3B89C"/>
<path d="M75.7627 62.7271C74.4854 62.7271 73.4463 63.7666 73.4463 65.0439C73.4463 66.3213 74.4854 67.3604 75.7627 67.3604C77.04 67.3604 78.0791 66.3213 78.0791 65.0439C78.0791 63.7666 77.04 62.7271 75.7627 62.7271ZM75.7627 66.3604C75.0371 66.3604 74.4463 65.77 74.4463 65.0439C74.4463 64.3179 75.0371 63.7271 75.7627 63.7271C76.4883 63.7271 77.0791 64.3179 77.0791 65.0439C77.0791 65.77 76.4883 66.3604 75.7627 66.3604Z" fill="#D3B89C"/>
<path d="M75.7627 61.8882C76.0391 61.8882 76.2627 61.6646 76.2627 61.3882V60.5366C76.2627 60.2603 76.0391 60.0366 75.7627 60.0366C75.4863 60.0366 75.2627 60.2603 75.2627 60.5366V61.3882C75.2627 61.6646 75.4863 61.8882 75.7627 61.8882Z" fill="#D3B89C"/>
<path d="M73.502 62.128C73.5938 62.2886 73.7628 62.378 73.9347 62.378C74.0196 62.378 74.1055 62.3565 74.1847 62.3111C74.4239 62.1729 74.5059 61.8673 74.3673 61.628L73.9415 60.8907C73.8048 60.6514 73.4981 60.5709 73.2589 60.7076C73.0196 60.8458 72.9376 61.1514 73.0763 61.3907L73.502 62.128Z" fill="#D3B89C"/>
<path d="M71.6095 63.2224L72.3468 63.6487C72.4249 63.6946 72.5118 63.7161 72.5968 63.7161C72.7686 63.7161 72.9366 63.6267 73.0294 63.4666C73.168 63.2273 73.086 62.9216 72.8468 62.7835L72.1095 62.3572C71.8751 62.2195 71.5655 62.3001 71.4268 62.5393C71.2882 62.7786 71.3702 63.0842 71.6095 63.2224Z" fill="#D3B89C"/>
<path d="M72.6064 65.0439C72.6064 64.7676 72.3828 64.5439 72.1064 64.5439H71.2549C70.9785 64.5439 70.7549 64.7676 70.7549 65.0439C70.7549 65.3203 70.9785 65.5439 71.2549 65.5439H72.1064C72.3828 65.5439 72.6064 65.3203 72.6064 65.0439Z" fill="#D3B89C"/>
<path d="M73.0294 66.6218C72.8927 66.3821 72.586 66.303 72.3468 66.4387L71.6095 66.8645C71.3702 67.0027 71.2882 67.3083 71.4268 67.5476C71.5186 67.7082 71.6876 67.7976 71.8595 67.7976C71.9444 67.7976 72.0304 67.7761 72.1095 67.7307L72.8468 67.3049C73.086 67.1667 73.168 66.8611 73.0294 66.6218Z" fill="#D3B89C"/>
<path d="M74.1847 67.7768C73.9454 67.6395 73.6388 67.7201 73.502 67.9599L73.0763 68.6972C72.9376 68.9364 73.0196 69.2421 73.2589 69.3803C73.338 69.4257 73.4239 69.4472 73.5089 69.4472C73.6807 69.4472 73.8497 69.3578 73.9415 69.1972L74.3673 68.4599C74.5059 68.2206 74.4239 67.9149 74.1847 67.7768Z" fill="#D3B89C"/>
<path d="M75.7627 68.1997C75.4863 68.1997 75.2627 68.4233 75.2627 68.6997V69.5513C75.2627 69.8276 75.4863 70.0513 75.7627 70.0513C76.0391 70.0513 76.2627 69.8276 76.2627 69.5513V68.6997C76.2627 68.4233 76.0391 68.1997 75.7627 68.1997Z" fill="#D3B89C"/>
<path d="M78.0225 67.9593C77.8829 67.7186 77.5733 67.639 77.3399 67.7772C77.1007 67.9153 77.0186 68.2215 77.1573 68.4603L77.5841 69.1976C77.6768 69.3577 77.8448 69.4471 78.0167 69.4471C78.1026 69.4471 78.1886 69.4256 78.2667 69.3797C78.5059 69.2415 78.588 68.9354 78.4493 68.6966L78.0225 67.9593Z" fill="#D3B89C"/>
<path d="M79.9161 66.8645L79.1788 66.4387C78.9405 66.303 78.6339 66.3821 78.4962 66.6218C78.3575 66.8611 78.4395 67.1667 78.6788 67.3049L79.4161 67.7307C79.4952 67.7761 79.5811 67.7976 79.6661 67.7976C79.838 67.7976 80.0069 67.7082 80.0987 67.5476C80.2374 67.3083 80.1554 67.0027 79.9161 66.8645Z" fill="#D3B89C"/>
<path d="M78.918 65.0439C78.918 65.3203 79.1416 65.5439 79.418 65.5439H80.2695C80.5459 65.5439 80.7695 65.3203 80.7695 65.0439C80.7695 64.7676 80.5459 64.5439 80.2695 64.5439H79.418C79.1416 64.5439 78.918 64.7676 78.918 65.0439Z" fill="#D3B89C"/>
<path d="M79.4161 62.3572L78.6788 62.7835C78.4395 62.9216 78.3575 63.2273 78.4962 63.4666C78.5889 63.6267 78.7569 63.7161 78.9288 63.7161C79.0138 63.7161 79.1007 63.6946 79.1788 63.6487L79.9161 63.2224C80.1554 63.0842 80.2374 62.7786 80.0987 62.5393C79.961 62.3001 79.6534 62.2195 79.4161 62.3572Z" fill="#D3B89C"/>
<path d="M77.3399 62.3104C77.418 62.3563 77.504 62.3778 77.5899 62.3778C77.7618 62.3778 77.9298 62.2884 78.0225 62.1282L78.4493 61.3909C78.588 61.1522 78.5059 60.846 78.2667 60.7078C78.0323 60.5696 77.7227 60.6492 77.5841 60.89L77.1573 61.6273C77.0186 61.866 77.1007 62.1722 77.3399 62.3104Z" fill="#D3B89C"/>
<path d="M89.6367 49.5522C89.542 49.4316 89.3965 49.3613 89.2432 49.3613H87.126V23.9468C87.126 23.8281 87.084 23.7139 87.0078 23.6235L84.8311 21.0562C84.7354 20.9438 84.5957 20.8794 84.4492 20.8794H82.2725C82.1143 20.8794 81.9658 20.9541 81.8711 21.0806L80.0186 23.5688H68.0699C67.8135 21.6429 66.2776 21.089 65.4268 21.085H62.0879V16.479C62.0879 16.3311 62.0225 16.1904 61.9092 16.0957C61.7949 16.0005 61.6455 15.9595 61.5 15.9868L60.8215 16.108C62.6808 13.436 63.046 10.2507 61.9459 7.93561C61.9392 7.92236 61.933 7.90991 61.925 7.89722C61.5497 7.12256 61.0125 6.44574 60.3096 5.92285C60.2031 5.84424 60.0645 5.81152 59.9385 5.82959C59.8066 5.84863 59.6885 5.91943 59.6094 6.02588L56.3362 10.4269C55.1343 9.55896 53.0303 8.20642 51.5918 8.18677C51.6932 7.90021 51.7588 7.59674 51.7588 7.27588C51.7588 5.7583 50.5244 4.52344 49.0068 4.52344C47.4893 4.52344 46.2539 5.7583 46.2539 7.27588C46.2539 8.79346 47.4893 10.0283 49.0068 10.0283C49.4316 10.0283 49.8293 9.92346 50.1889 9.75085C50.3618 11.2761 52.1224 13.3671 53.3596 14.4293L50.4258 18.374C50.3467 18.4805 50.3135 18.6138 50.332 18.7451C50.3516 18.8765 50.4229 18.9946 50.5283 19.0737C51.4648 19.7695 52.6152 20.1372 53.8574 20.1372C55.2293 20.1372 56.6401 19.675 57.9232 18.8748L55.2946 23.5688H38.0244L36.1719 21.0806C36.0771 20.9541 35.9287 20.8794 35.7705 20.8794H33.5938C33.4473 20.8794 33.3076 20.9438 33.2119 21.0562L31.0352 23.6235C30.959 23.7139 30.917 23.8281 30.917 23.9468V29.4768C30.4744 29.5084 30.1545 29.6758 29.9521 29.8428C29.8561 29.922 29.7725 30.0096 29.6987 30.1022C29.5873 29.9521 29.46 29.8234 29.3086 29.7261C29.0261 29.544 28.7163 29.4958 28.4346 29.5102V26.7573C28.4346 25.9424 27.7715 25.2793 26.957 25.2793H26.126C25.9576 25.2793 25.7983 25.3135 25.6475 25.3656V24.7783C25.6475 24.502 25.4238 24.2783 25.1475 24.2783H15.5156C15.2393 24.2783 15.0156 24.502 15.0156 24.7783V24.8046C13.8975 24.7174 11.3148 24.6833 8.64746 25.8315C8.58112 25.8601 8.52557 25.9024 8.47955 25.9524L6.7998 25.4619C6.61719 25.4082 6.42773 25.4604 6.29883 25.5957L3.19629 28.8281C3.09375 28.9346 3.04395 29.0806 3.05957 29.2271C3.0752 29.3735 3.1543 29.5059 3.27637 29.5884L3.76727 29.9207C1.77698 32.9108 0.924988 37.1062 1.23749 42.4028C1.0213 42.458 0.858398 42.645 0.858398 42.8784V45.3384C0.858398 45.5718 1.02051 45.7744 1.24805 45.8262L2.05609 46.0091C2.33405 46.7728 3.25006 48.907 5.12585 50.1678L2.16211 52.1343C2.05078 52.208 1.97363 52.3232 1.94824 52.4541C1.92187 52.585 1.9502 52.7207 2.02441 52.8315L4.68524 56.7571C2.96753 59.0793 1.93848 61.9402 1.93848 65.0439C1.93848 70.9284 5.5976 75.9651 10.756 78.0244H0.5C0.223633 78.0244 0 78.248 0 78.5244C0 78.8008 0.223633 79.0244 0.5 79.0244H90.5801C90.8564 79.0244 91.0801 78.8008 91.0801 78.5244C91.0801 78.248 90.8564 78.0244 90.5801 78.0244H80.9256C86.084 75.9651 89.7432 70.9284 89.7432 65.0439C89.7432 61.3904 88.3231 58.0704 86.0204 55.5771H90.5801C90.8564 55.5771 91.0801 55.3535 91.0801 55.0771V51.5635C91.0801 51.4517 91.042 51.3428 90.9736 51.2544L89.6367 49.5522ZM47.2539 7.27588C47.2539 6.30957 48.04 5.52344 49.0068 5.52344C49.9727 5.52344 50.7588 6.30957 50.7588 7.27588C50.7588 8.24219 49.9727 9.02832 49.0068 9.02832C48.04 9.02832 47.2539 8.24219 47.2539 7.27588ZM51.2285 9.28125C51.54 8.85718 53.4089 9.55804 55.7363 11.2336L53.9614 13.6201C52.3457 12.2397 50.8005 9.85577 51.2285 9.28125ZM51.5449 18.5454L54.4478 14.642C54.4477 14.6422 54.4479 14.6418 54.4478 14.642C54.4479 14.6418 54.4484 14.6412 54.4485 14.641L60.0957 7.04736C60.4258 7.35931 60.6802 7.73267 60.9 8.1297L56.748 13.6001C56.5811 13.8198 56.624 14.1338 56.8438 14.3008C56.9346 14.3691 57.041 14.4023 57.1465 14.4023C57.2969 14.4023 57.4463 14.334 57.5449 14.2046L61.3361 9.20947C61.8862 11.1815 61.4053 13.6697 59.834 15.7817C58.2949 17.8516 56.0049 19.1372 53.8574 19.1372C53.0127 19.1372 52.2227 18.9341 51.5449 18.5454ZM59.9639 17.2769L61.0879 17.0762V21.085H59.7139C59.4375 21.085 59.2139 21.3086 59.2139 21.585C59.2139 21.8613 59.4375 22.085 59.7139 22.085H65.4209C65.5756 22.088 66.8016 22.1682 67.0647 23.5688H56.441L59.9639 17.2769ZM28.7705 30.5688C28.9121 30.6616 29.2334 31.0259 29.1641 32.4219V47.1313C29.1641 47.4077 29.3877 47.6313 29.6641 47.6313C29.9404 47.6313 30.1641 47.4077 30.1641 47.1313L30.1631 32.4468C30.1746 32.2188 30.1618 32.0267 30.155 31.8258C30.1616 31.7941 30.1746 31.7646 30.1748 31.731C30.1768 31.5132 30.2549 30.8877 30.5908 30.6123C30.6804 30.5386 30.7899 30.4954 30.917 30.4768V52.9175C30.917 53.0771 30.9932 53.2275 31.123 53.3218L33.548 55.0869H25.7166C25.6928 55.0635 25.6665 55.0429 25.6426 55.0197C25.643 55.0113 25.6475 55.0042 25.6475 54.9956V37.3019C25.7983 37.3539 25.9576 37.3882 26.126 37.3882H26.957C27.7715 37.3882 28.4346 36.7256 28.4346 35.9106V30.5154C28.5455 30.5012 28.6689 30.5026 28.7705 30.5688ZM62.3813 61.0093H59.2222C58.6387 59.0779 57.6429 57.3289 56.3449 55.8481H65.2586C63.9606 57.3289 62.9648 59.0779 62.3813 61.0093ZM58.8213 65.0439C58.8213 72.2012 52.998 78.0244 45.8408 78.0244C38.6836 78.0244 32.8604 72.2012 32.8604 65.0439C32.8604 57.8867 38.6836 52.0635 45.8408 52.0635C52.998 52.0635 58.8213 57.8867 58.8213 65.0439ZM32.3604 61.0093H29.3003C28.7487 59.1835 27.835 57.5148 26.6401 56.0869H34.9218L35.0427 56.1749C33.8802 57.5877 32.9941 59.2335 32.4546 61.0283C32.423 61.022 32.3938 61.0093 32.3604 61.0093ZM26.126 26.2793H26.957C27.2207 26.2793 27.4346 26.4937 27.4346 26.7573V35.9106C27.4346 36.1738 27.2207 36.3882 26.957 36.3882H26.126C25.8623 36.3882 25.6475 36.1738 25.6475 35.9106V26.7573C25.6475 26.4937 25.8623 26.2793 26.126 26.2793ZM15.0156 25.8092V27.8608L9.99573 26.3951C12.1671 25.6873 14.1739 25.7403 15.0156 25.8092ZM4.59436 30.4805L10.7891 34.6738C9.25195 35.3467 8.80957 36.7866 8.80957 37.5776V42.3784H2.23694C1.93127 37.2905 2.72601 33.2924 4.59436 30.4805ZM5.82617 49.4365C4.48566 48.6029 3.66675 47.1842 3.25238 46.2798L9.01855 47.585L5.9826 49.5993C5.94336 49.536 5.89368 49.4786 5.82617 49.4365ZM3.13574 52.6885L10.363 47.8933L15.3965 49.125C15.4355 49.1343 15.4756 49.1392 15.5156 49.1392H23.1855C23.4619 49.1392 23.6855 48.9155 23.6855 48.6392C23.6855 48.3628 23.4619 48.1392 23.1855 48.1392H15.5762L10.3887 46.8696C10.3867 46.8691 10.3849 46.8698 10.3829 46.8694C10.3818 46.8691 10.381 46.8679 10.3799 46.8677L1.8584 44.939V43.3784H9.30957C9.58594 43.3784 9.80957 43.1548 9.80957 42.8784V37.5806C9.81152 37.3862 9.89551 35.6699 12.0322 35.3574C12.2363 35.3276 12.4014 35.1753 12.4473 34.9741C12.4932 34.7729 12.4111 34.5645 12.2402 34.4487L4.32812 29.0928L6.80957 26.5068L15.376 29.0078C15.5264 29.0522 15.6885 29.0225 15.8154 28.9277C15.9414 28.8335 16.0156 28.6851 16.0156 28.5278V25.2783H24.6475V26.7573V35.9106V54.1407C22.2531 52.22 19.2203 51.0635 15.9189 51.0635C11.6901 51.0635 7.90216 52.9581 5.33636 55.9345L3.13574 52.6885ZM2.93848 65.0439C2.93848 57.8867 8.76172 52.0635 15.9189 52.0635C23.0762 52.0635 28.8994 57.8867 28.8994 65.0439C28.8994 72.2012 23.0762 78.0244 15.9189 78.0244C8.76172 78.0244 2.93848 72.2012 2.93848 65.0439ZM21.0818 78.0244C26.2403 75.9651 29.8994 70.9284 29.8994 65.0439C29.8994 64.0009 29.7756 62.9877 29.558 62.0093H32.2018C31.9841 62.9877 31.8604 64.0009 31.8604 65.0439C31.8604 70.9284 35.5195 75.9651 40.6779 78.0244H21.0818ZM51.0037 78.0244C56.1622 75.9651 59.8213 70.9284 59.8213 65.0439C59.8213 64.0009 59.6975 62.9877 59.4799 62.0093H62.1237C61.906 62.9877 61.7822 64.0009 61.7822 65.0439C61.7822 70.9284 65.4413 75.9651 70.5998 78.0244H51.0037ZM75.7627 78.0244C68.6055 78.0244 62.7822 72.2012 62.7822 65.0439C62.7822 57.8867 68.6055 52.0635 75.7627 52.0635C82.9199 52.0635 88.7432 57.8867 88.7432 65.0439C88.7432 72.2012 82.9199 78.0244 75.7627 78.0244ZM90.0801 54.5771H84.9995C82.5333 52.3981 79.3047 51.0635 75.7627 51.0635C72.0761 51.0635 68.7282 52.5084 66.2278 54.8481H55.6201C55.5494 54.8481 55.4827 54.8635 55.4217 54.8899C52.9166 52.525 49.5497 51.0635 45.8408 51.0635C41.857 51.0635 38.2662 52.7469 35.7173 55.4294L31.917 52.6631V24.1304L33.8252 21.8794H35.5195L37.3721 24.3677C37.4668 24.4941 37.6152 24.5688 37.7734 24.5688H67.623H67.6289H80.2695C80.4277 24.5688 80.5762 24.4941 80.6709 24.3677L82.5234 21.8794H84.2178L86.126 24.1304V31.229H72.6555L74.9512 27.5181C75.0967 27.2832 75.0244 26.9751 74.7891 26.8296C74.5537 26.6846 74.2461 26.7563 74.1016 26.9917L71.4802 31.229H56.234L59.4463 26.0425C59.5918 25.8076 59.5195 25.4995 59.2852 25.354C59.0498 25.2095 58.7422 25.2817 58.5967 25.5161L55.0584 31.229H49.0068C48.7305 31.229 48.5068 31.4526 48.5068 31.729C48.5068 32.0054 48.7305 32.229 49.0068 32.229H54.439L47.765 43.0049H37.8955C37.6191 43.0049 37.3955 43.2285 37.3955 43.5049C37.3955 43.7812 37.6191 44.0049 37.8955 44.0049H47.1456L44.7607 47.8555C44.6152 48.0903 44.6875 48.3984 44.9219 48.5439C45.0039 48.5947 45.0957 48.6187 45.1855 48.6187C45.3525 48.6187 45.5156 48.5347 45.6104 48.3818L48.3212 44.0049H70.8164C71.0928 44.0049 71.3164 43.7812 71.3164 43.5049C71.3164 43.2285 71.0928 43.0049 70.8164 43.0049H65.3705L72.0369 32.229H86.126V43.0049H74.4951C74.2188 43.0049 73.9951 43.2285 73.9951 43.5049C73.9951 43.7812 74.2188 44.0049 74.4951 44.0049H86.126V49.3613H84.5684V47.1245C84.5605 46.5464 84.2637 45.4146 83.127 45.2666H80.8516L78.5107 45.271C77.4404 45.4146 77.1436 46.5464 77.1357 47.1313V49.3613H63.7275V47.1245C63.7197 46.5464 63.4229 45.4146 62.2861 45.2666H60.0107L57.6699 45.271C56.5996 45.4146 56.3027 46.5464 56.2949 47.1313V49.3613H42.8867V47.1245C42.8789 46.5464 42.582 45.4146 41.4453 45.2666H39.1699L36.8291 45.271C35.7588 45.4146 35.4619 46.5464 35.4541 47.1313V49.3613H34.5947C34.3184 49.3613 34.0947 49.585 34.0947 49.8613C34.0947 50.1377 34.3184 50.3613 34.5947 50.3613H35.4541V50.4707C35.4541 50.7471 35.6777 50.9707 35.9541 50.9707C36.2305 50.9707 36.4541 50.7471 36.4541 50.4707V47.1382C36.4541 47.1299 36.4785 46.3271 36.8955 46.2666H39.1699L41.3789 46.2622C41.8613 46.3271 41.8867 47.1313 41.8867 47.1313V50.4707C41.8867 50.7471 42.1104 50.9707 42.3867 50.9707C42.6631 50.9707 42.8867 50.7471 42.8867 50.4707V50.3613H56.2949V50.4707C56.2949 50.7471 56.5186 50.9707 56.7949 50.9707C57.0713 50.9707 57.2949 50.7471 57.2949 50.4707V47.1382C57.2949 47.1299 57.3193 46.3271 57.7363 46.2666H60.0107L62.2197 46.2622C62.7021 46.3271 62.7275 47.1313 62.7275 47.1313V50.4707C62.7275 50.7471 62.9512 50.9707 63.2275 50.9707C63.5039 50.9707 63.7275 50.7471 63.7275 50.4707V50.3613H77.1357V50.4707C77.1357 50.7471 77.3594 50.9707 77.6357 50.9707C77.9121 50.9707 78.1357 50.7471 78.1357 50.4707V47.1382C78.1357 47.1299 78.1602 46.3271 78.5771 46.2666H80.8516L83.0605 46.2622C83.543 46.3271 83.5684 47.1313 83.5684 47.1313V50.4707C83.5684 50.7471 83.792 50.9707 84.0684 50.9707C84.3447 50.9707 84.5684 50.7471 84.5684 50.4707V50.3613H89L90.0801 51.7363V54.5771ZM48.9406 43.0049L55.6146 32.229H70.8616L64.1953 43.0049H48.9406Z" fill="#D3B89C"/>
<path d="M36.0615 33.8999H45.2705C46.085 33.8999 46.748 33.2368 46.748 32.4219V27.8584C46.748 27.0435 46.085 26.3804 45.2705 26.3804H36.0615C35.2471 26.3804 34.584 27.0435 34.584 27.8584V32.4219C34.584 33.2368 35.2471 33.8999 36.0615 33.8999ZM35.584 27.8584C35.584 27.5947 35.7979 27.3804 36.0615 27.3804H45.2705C45.5342 27.3804 45.748 27.5947 45.748 27.8584V32.4219C45.748 32.6855 45.5342 32.8999 45.2705 32.8999H36.0615C35.7979 32.8999 35.584 32.6855 35.584 32.4219V27.8584Z" fill="#D3B89C"/>
<path d="M36.9541 30.9824H39.8682C40.1445 30.9824 40.3682 30.7588 40.3682 30.4824V28.8481C40.3682 28.5718 40.1445 28.3481 39.8682 28.3481C39.5918 28.3481 39.3682 28.5718 39.3682 28.8481V29.9824H37.4541V28.8481C37.4541 28.5718 37.2305 28.3481 36.9541 28.3481C36.6777 28.3481 36.4541 28.5718 36.4541 28.8481V30.4824C36.4541 30.7588 36.6777 30.9824 36.9541 30.9824Z" fill="#D3B89C"/>
<path d="M41.5381 30.9824H44.4521C44.7285 30.9824 44.9521 30.7588 44.9521 30.4824V28.8481C44.9521 28.5718 44.7285 28.3481 44.4521 28.3481C44.1758 28.3481 43.9521 28.5718 43.9521 28.8481V29.9824H42.0381V28.8481C42.0381 28.5718 41.8145 28.3481 41.5381 28.3481C41.2617 28.3481 41.0381 28.5718 41.0381 28.8481V30.4824C41.0381 30.7588 41.2617 30.9824 41.5381 30.9824Z" fill="#D3B89C"/>
<path d="M27.0566 38.8896C26.7803 38.8896 26.5566 39.1133 26.5566 39.3896V52.1431C26.5566 52.4194 26.7803 52.6431 27.0566 52.6431C27.333 52.6431 27.5566 52.4194 27.5566 52.1431V39.3896C27.5566 39.1133 27.333 38.8896 27.0566 38.8896Z" fill="#D3B89C"/>
<path d="M15.5156 34.2241C15.2393 34.2241 15.0156 34.4478 15.0156 34.7241V35.9683C15.0156 36.2446 15.2393 36.4683 15.5156 36.4683C15.792 36.4683 16.0156 36.2446 16.0156 35.9683V34.7241C16.0156 34.4478 15.792 34.2241 15.5156 34.2241Z" fill="#D3B89C"/>
<path d="M15.5156 37.521C15.2393 37.521 15.0156 37.7446 15.0156 38.021V41.2559C15.0156 41.5322 15.2393 41.7559 15.5156 41.7559C15.792 41.7559 16.0156 41.5322 16.0156 41.2559V38.021C16.0156 37.7446 15.792 37.521 15.5156 37.521Z" fill="#D3B89C"/>
<path d="M17.7354 34.2241C17.459 34.2241 17.2354 34.4478 17.2354 34.7241V35.9683C17.2354 36.2446 17.459 36.4683 17.7354 36.4683C18.0117 36.4683 18.2354 36.2446 18.2354 35.9683V34.7241C18.2354 34.4478 18.0117 34.2241 17.7354 34.2241Z" fill="#D3B89C"/>
<path d="M17.7354 37.521C17.459 37.521 17.2354 37.7446 17.2354 38.021V41.2559C17.2354 41.5322 17.459 41.7559 17.7354 41.7559C18.0117 41.7559 18.2354 41.5322 18.2354 41.2559V38.021C18.2354 37.7446 18.0117 37.521 17.7354 37.521Z" fill="#D3B89C"/>
<path d="M19.9561 34.2241C19.6797 34.2241 19.4561 34.4478 19.4561 34.7241V35.9683C19.4561 36.2446 19.6797 36.4683 19.9561 36.4683C20.2324 36.4683 20.4561 36.2446 20.4561 35.9683V34.7241C20.4561 34.4478 20.2324 34.2241 19.9561 34.2241Z" fill="#D3B89C"/>
<path d="M19.9561 37.521C19.6797 37.521 19.4561 37.7446 19.4561 38.021V41.2559C19.4561 41.5322 19.6797 41.7559 19.9561 41.7559C20.2324 41.7559 20.4561 41.5322 20.4561 41.2559V38.021C20.4561 37.7446 20.2324 37.521 19.9561 37.521Z" fill="#D3B89C"/>
<path d="M22.1758 34.2241C21.8994 34.2241 21.6758 34.4478 21.6758 34.7241V35.9683C21.6758 36.2446 21.8994 36.4683 22.1758 36.4683C22.4521 36.4683 22.6758 36.2446 22.6758 35.9683V34.7241C22.6758 34.4478 22.4521 34.2241 22.1758 34.2241Z" fill="#D3B89C"/>
<path d="M22.1758 37.521C21.8994 37.521 21.6758 37.7446 21.6758 38.021V41.2559C21.6758 41.5322 21.8994 41.7559 22.1758 41.7559C22.4521 41.7559 22.6758 41.5322 22.6758 41.2559V38.021C22.6758 37.7446 22.4521 37.521 22.1758 37.521Z" fill="#D3B89C"/>
</svg>
