<svg width="90" height="98" viewBox="0 0 90 98" fill="none" xmlns="http://www.w3.org/2000/svg">
<g clip-path="url(#clip0_19_6804)">
<path fill-rule="evenodd" clip-rule="evenodd" d="M41.3308 58.6639L40.5043 59.458C39.8883 58.5134 39.1808 57.6317 38.3922 56.8256C37.5921 56.0224 36.7121 55.303 35.7658 54.6785L36.5923 53.8844L41.3308 58.6639ZM16.6226 57.952L37.0158 78.6274C39.7575 75.9231 41.3127 72.2404 41.3391 68.3894C41.3656 64.5385 39.8612 60.8348 37.1569 58.0931C34.4526 55.3513 30.7699 53.7962 26.919 53.7697C23.0681 53.7433 19.3644 55.2477 16.6226 57.952ZM20.5711 74.4908C20.3292 74.2467 20.1497 73.9479 20.0477 73.6198C19.9457 73.2916 19.9242 72.9437 19.9851 72.6055C20.046 72.2673 20.1874 71.9487 20.3974 71.6767C20.6074 71.4047 20.8798 71.1873 21.1916 71.0428L21.2256 66.177C21.2138 66.0492 21.2288 65.9204 21.2697 65.7987C21.3106 65.6771 21.3766 65.5654 21.4632 65.4707C21.5499 65.3761 21.6554 65.3006 21.773 65.2492C21.8906 65.1977 22.0176 65.1715 22.146 65.1721C22.2743 65.1727 22.4011 65.2001 22.5182 65.2526C22.6353 65.3051 22.7401 65.3816 22.8259 65.477C22.9117 65.5724 22.9766 65.6848 23.0164 65.8068C23.0562 65.9288 23.07 66.0578 23.057 66.1854L23.0251 70.782L24.8842 68.9541C25.0556 68.7855 25.2868 68.6915 25.5272 68.6928C25.7676 68.694 25.9978 68.7903 26.1674 68.9607C26.3336 69.1333 26.4259 69.364 26.4247 69.6037C26.4235 69.8433 26.3288 70.073 26.1608 70.2439L24.3016 72.0718L28.8982 72.1036C29.026 72.0918 29.1549 72.1068 29.2765 72.1477C29.3982 72.1886 29.5099 72.2546 29.6045 72.3412C29.6992 72.4279 29.7746 72.5334 29.8261 72.651C29.8775 72.7686 29.9038 72.8956 29.9032 73.0239C29.9026 73.1523 29.8752 73.2791 29.8226 73.3962C29.7701 73.5133 29.6937 73.6181 29.5982 73.7039C29.5028 73.7897 29.3905 73.8546 29.2685 73.8944C29.1465 73.9342 29.0175 73.948 28.8898 73.935L24.024 73.901C23.8742 74.2094 23.6528 74.4776 23.3783 74.6831C23.1038 74.8886 22.7841 75.0254 22.4459 75.0822C22.1077 75.139 21.7609 75.114 21.4343 75.0095C21.1077 74.9049 20.8109 74.7237 20.5686 74.4811L20.5711 74.4908ZM22.0585 78.9291C22.2886 78.9502 22.5024 79.057 22.6573 79.2284C22.8122 79.3999 22.897 79.6233 22.8947 79.8544C22.8924 80.0855 22.8033 80.3072 22.645 80.4756C22.4867 80.6439 22.2708 80.7465 22.0404 80.763C19.9777 80.7459 18.006 79.9115 16.5577 78.4427C15.1094 76.974 14.3028 74.9907 14.3148 72.928C14.3594 72.7231 14.4726 72.5395 14.6358 72.4077C14.799 72.276 15.0023 72.2039 15.2121 72.2035C15.4218 72.2031 15.6254 72.2744 15.7891 72.4056C15.9528 72.5367 16.0667 72.7199 16.112 72.9247C16.1163 74.4975 16.738 76.0058 17.8434 77.1248C18.9487 78.2438 20.4492 78.884 22.0219 78.9077L22.0585 78.9291ZM21.9835 89.665C19.7919 89.6534 17.6241 89.2094 15.6044 88.3585C13.5846 87.5077 11.7526 86.2667 10.2133 84.7066C8.67394 83.1466 7.45755 81.2981 6.63379 79.2672C5.81003 77.2362 5.39508 75.0627 5.41273 72.8711C5.41404 72.7507 5.39141 72.6312 5.34618 72.5195C5.30094 72.4079 5.23399 72.3063 5.14921 72.2208C5.06442 72.1352 4.96349 72.0673 4.85227 72.0211C4.74105 71.9748 4.62175 71.9511 4.50129 71.9513C4.38108 71.9483 4.26149 71.9694 4.14958 72.0134C4.03767 72.0574 3.93571 72.1234 3.84972 72.2074C3.76374 72.2915 3.69548 72.3919 3.64896 72.5028C3.60244 72.6137 3.57861 72.7328 3.57889 72.853C3.55181 77.7605 5.4747 82.4779 8.92478 85.968C12.3749 89.4581 17.0697 91.4353 21.9772 91.4648C22.2185 91.4655 22.4503 91.3713 22.6229 91.2027C22.7954 91.034 22.8948 90.8043 22.8996 90.563C22.9002 90.3204 22.806 90.0872 22.6371 89.913C22.4681 89.7389 22.2378 89.6377 21.9953 89.631L21.9835 89.665ZM22.0222 84.3019C19.0215 84.2799 16.1523 83.0673 14.0452 80.9307C11.9381 78.794 10.7657 75.9081 10.7855 72.9074C10.7869 72.7876 10.7646 72.6687 10.72 72.5576C10.6755 72.4464 10.6094 72.3451 10.5257 72.2594C10.4419 72.1738 10.3422 72.1054 10.232 72.0584C10.1219 72.0113 10.0035 71.9863 9.88375 71.985C9.76398 71.9836 9.64511 72.0059 9.53393 72.0505C9.42276 72.095 9.32144 72.1611 9.23579 72.2448C9.15014 72.3286 9.08182 72.4283 9.03473 72.5385C8.98764 72.6486 8.96271 72.767 8.96135 72.8867C8.9427 76.3666 10.3042 79.7121 12.7475 82.19C15.1908 84.668 18.5167 86.0764 21.9966 86.1067C22.227 86.0903 22.4429 85.9876 22.6012 85.8193C22.7595 85.651 22.8486 85.4292 22.8509 85.1982C22.8532 84.9671 22.7684 84.7436 22.6135 84.5722C22.4586 84.4008 22.2448 84.2939 22.0147 84.2729L22.0222 84.3019ZM61.5394 44.4895L61.7488 39.4642L56.1254 33.7476L51.1548 33.9063L61.5394 44.4895ZM49.2551 34.5873L60.8468 46.3131L49.7814 57.2264L38.1825 45.5128L49.2551 34.5873ZM36.8805 46.7822L35.6652 47.9876C35.5171 48.1333 35.3992 48.3067 35.3182 48.498C35.2372 48.6893 35.1947 48.8947 35.1932 49.1024C35.1917 49.3102 35.2311 49.5162 35.3093 49.7086C35.3874 49.9011 35.5028 50.0762 35.6487 50.2241L44.989 59.6947C45.1346 59.8428 45.3081 59.9607 45.4994 60.0417C45.6906 60.1227 45.896 60.1652 46.1038 60.1668C46.3115 60.1683 46.5175 60.1289 46.7099 60.0507C46.9024 59.9725 47.0776 59.8572 47.2254 59.7112L48.4504 58.5033L36.8805 46.7822ZM43.2954 29.6818L39.3014 25.6176L34.0413 30.812L39.52 36.37L43.2892 32.7112C43.6865 32.3182 43.9116 31.7835 43.9152 31.2246C43.9187 30.6657 43.7003 30.1282 43.308 29.7301L43.2954 29.6818ZM38.0127 24.3207L32.7598 29.5029L27.9082 24.5669L33.1686 19.4137L38.0202 24.3497L38.0127 24.3207ZM31.8896 18.1143L27.038 13.1782L21.7851 18.3604L26.627 23.299L31.8896 18.1143ZM25.7665 11.9078L20.5039 17.0925L15.0252 11.5346L18.7792 7.81772C19.1786 7.42589 19.7174 7.20876 20.2769 7.21411C20.8364 7.21945 21.3709 7.44682 21.7628 7.84621L25.764 11.8981L25.7665 11.9078ZM13.7161 12.8161L9.96671 16.5111C9.56714 16.905 9.34004 17.4413 9.33517 18.0024C9.3303 18.5634 9.54806 19.1036 9.94074 19.5044L13.9419 23.5563L19.2045 18.3716L13.7161 12.8161ZM15.223 24.8242L20.4734 19.6323L25.325 24.5683L20.0625 29.7531L15.2205 24.8145L15.223 24.8242ZM21.3461 31.0306L26.1881 35.9692L31.4506 30.7845L26.599 25.8484L21.3461 31.0306ZM27.489 37.2733L31.4927 41.3349C31.887 41.7298 32.4212 41.9532 32.9793 41.9568C33.5374 41.9603 34.0744 41.7436 34.4738 41.3537L38.2206 37.6491L32.7322 32.0936L27.489 37.2733ZM65.6607 52.3337C65.2664 51.9388 64.7322 51.7153 64.1741 51.7118C63.616 51.7083 63.079 51.925 62.6797 52.3148L58.9231 56.022L64.4019 61.58L69.6741 56.3927L65.6704 52.3311L65.6607 52.3337ZM70.9435 57.6947L75.7951 62.6308L70.5447 67.8226L65.6931 62.8866L70.946 57.7044L70.9435 57.6947ZM77.0666 63.9012L71.8162 69.093L76.6678 74.0291L81.9182 68.8372L77.0666 63.9012ZM83.2018 70.1148L87.1933 74.1692C87.5865 74.5686 87.8055 75.1075 87.8024 75.668C87.7994 76.2284 87.5745 76.7649 87.177 77.16L83.418 80.8575L77.9422 75.3504L83.2048 70.1657L83.2018 70.1148ZM82.1211 82.1462L76.6327 76.5907L71.3798 81.7729L75.3809 85.8249C75.5756 86.0252 75.8082 86.1849 76.0651 86.2946C76.322 86.4043 76.5981 86.462 76.8775 86.4642C77.1569 86.4663 77.4339 86.413 77.6925 86.3073C77.951 86.2016 78.1861 86.0456 78.3839 85.8483L82.1404 82.1411L82.1211 82.1462ZM70.0864 80.4979L65.2445 75.5593L70.4974 70.3771L75.349 75.3132L70.0864 80.4979ZM63.9945 74.2523L69.257 69.0676L64.4054 64.1316L59.1525 69.3138L63.9945 74.2523ZM57.8327 68.056L53.829 63.9944C53.4372 63.5949 53.22 63.0562 53.2254 62.4966C53.2307 61.9371 53.4581 61.4026 53.8575 61.0107L57.6043 57.3061L63.0953 62.8712L57.8327 68.056ZM63.0579 38.1827L57.4219 32.4177L58.2433 31.6042C58.5445 31.3111 58.949 31.1482 59.3693 31.1508C59.7896 31.1535 60.192 31.3214 60.4895 31.6182L63.9026 35.0794C64.1949 35.3792 64.3571 35.7823 64.354 36.201C64.351 36.6197 64.1828 37.0203 63.8861 37.3158L63.0647 38.1293L63.0579 38.1827ZM42.6222 38.5584L41.2384 37.2139L38.9854 39.4339L40.3208 40.791L42.5738 38.571L42.6222 38.5584ZM56.7648 52.8952L54.5119 55.1152L55.8956 56.4596L58.1486 54.2397L56.7648 52.8952Z" fill="#D3B89C"/>
</g>
<defs>
<clipPath id="clip0_19_6804">
<rect width="90" height="98" fill="white"/>
</clipPath>
</defs>
</svg>
