<svg width="512" height="412" viewBox="0 0 512 412" fill="none" xmlns="http://www.w3.org/2000/svg">
<path d="M280.105 175.208C277.904 175.208 276.076 173.42 276.076 171.21C276.076 169 277.826 167.212 280.027 167.212H280.105C282.307 167.212 284.103 169 284.103 171.21C284.103 173.42 282.307 175.208 280.105 175.208Z" fill="white"/>
<path d="M90.2874 154.624C88.4294 154.624 86.7574 153.312 86.3754 151.415C85.9374 149.252 87.3434 147.144 89.5064 146.706L426.895 78.6222C429.019 78.1932 431.159 79.5821 431.596 81.7531C432.034 83.9161 430.627 86.0241 428.472 86.4621L91.0834 154.546C90.8184 154.601 90.5524 154.624 90.2874 154.624Z" fill="white"/>
<path d="M235.88 143.887C234.022 143.887 232.351 142.575 231.968 140.678C231.53 138.515 232.936 136.407 235.099 135.969L315.057 119.836C317.197 119.391 319.336 120.797 319.774 122.968C320.211 125.131 318.805 127.239 316.634 127.676L236.677 143.809C236.412 143.864 236.146 143.887 235.88 143.887Z" fill="white"/>
<path d="M79.2063 99.7601C77.3483 99.7601 75.6773 98.4481 75.2943 96.5511C74.8563 94.3881 76.2633 92.2801 78.4253 91.8421L415.806 23.7571C417.929 23.3121 420.085 24.7171 420.522 26.8881C420.96 29.0511 419.554 31.1591 417.383 31.5971L80.0033 99.6821C79.7373 99.7361 79.4713 99.7601 79.2063 99.7601Z" fill="white"/>
<path d="M435.515 84.9474C433.657 84.9474 431.986 83.6354 431.595 81.7384L420.522 26.8744C420.085 24.7114 421.475 22.6034 423.646 22.1654C425.77 21.7204 427.925 23.1344 428.362 25.2974L439.435 80.1614C439.873 82.3244 438.482 84.4324 436.312 84.8694C436.047 84.9234 435.781 84.9474 435.515 84.9474Z" fill="white"/>
<path d="M424.442 30.083C422.74 30.083 421.178 29.005 420.631 27.303C419.96 25.202 421.115 22.953 423.224 22.274L492.175 0.191024C494.268 -0.472975 496.517 0.675023 497.204 2.78402C497.875 4.88502 496.704 7.13402 494.611 7.81202L425.66 29.895C425.255 30.02 424.848 30.083 424.442 30.083Z" fill="white"/>
<path d="M435.515 84.9474C433.469 84.9474 431.72 83.3854 431.533 81.3004C431.345 79.1064 432.97 77.1614 435.172 76.9664L507.293 70.5554C509.309 70.4304 511.416 71.9764 511.619 74.1864C511.822 76.3804 510.198 78.3254 507.996 78.5194L435.875 84.9304C435.75 84.9394 435.64 84.9474 435.515 84.9474Z" fill="white"/>
<path d="M507.636 78.5362C505.778 78.5362 504.107 77.2242 503.716 75.3272L489.473 4.79123C489.036 2.62823 490.426 0.520233 492.597 0.0822327C494.737 -0.362767 496.876 1.04323 497.314 3.21323L511.556 73.7502C511.994 75.9132 510.604 78.0212 508.433 78.4582C508.168 78.5122 507.902 78.5362 507.636 78.5362Z" fill="white"/>
<path d="M449.602 73.9443C447.744 73.9443 446.073 72.6323 445.698 70.7353L437.78 31.5433C437.342 29.3803 438.732 27.2723 440.903 26.8343C443.011 26.4043 445.182 27.7943 445.62 29.9653L453.538 69.1573C453.976 71.3203 452.57 73.4283 450.398 73.8663C450.133 73.9213 449.868 73.9443 449.602 73.9443Z" fill="white"/>
<path d="M90.2871 154.624C88.4291 154.624 86.7571 153.312 86.3751 151.415L75.2941 96.551C74.8561 94.388 76.2551 92.28 78.4251 91.842C80.5651 91.404 82.6961 92.802 83.1331 94.973L94.2141 149.837C94.6511 152 93.2531 154.108 91.0821 154.545C90.8181 154.601 90.5521 154.624 90.2871 154.624Z" fill="white"/>
<path d="M98.0481 112.27C96.1901 112.27 94.5191 110.958 94.1361 109.061C93.6981 106.898 95.1041 104.79 97.2671 104.353L411.136 41.0165C413.276 40.5865 415.415 41.9765 415.853 44.1475C416.29 46.3105 414.884 48.4185 412.713 48.8555L98.8451 112.192C98.5801 112.246 98.3141 112.27 98.0481 112.27Z" fill="white"/>
<path d="M140.325 79.2543C138.467 79.2543 136.796 77.9423 136.413 76.0533L134.828 68.2203C134.39 66.0503 135.788 63.9413 137.951 63.5043C140.13 63.0743 142.23 64.4643 142.668 66.6283L144.253 74.4603C144.691 76.6313 143.293 78.7393 141.13 79.1763C140.856 79.2313 140.59 79.2543 140.325 79.2543Z" fill="white"/>
<path d="M107.387 77.7472C105.529 77.7472 103.858 76.4352 103.475 74.5382C103.038 72.3752 104.444 70.2672 106.607 69.8302L137.959 63.5052C140.099 63.0752 142.23 64.4652 142.668 66.6362C143.106 68.7992 141.7 70.9072 139.537 71.3442L108.185 77.6692C107.919 77.7242 107.653 77.7472 107.387 77.7472Z" fill="white"/>
<path d="M108.973 85.587C107.115 85.587 105.443 84.275 105.061 82.378L103.476 74.538C103.039 72.375 104.437 70.267 106.608 69.83C108.74 69.385 110.879 70.798 111.316 72.961L112.901 80.801C113.339 82.964 111.941 85.072 109.77 85.509C109.504 85.564 109.238 85.587 108.973 85.587Z" fill="white"/>
<path d="M129.315 65.1593C127.457 65.1593 125.785 63.8473 125.403 61.9503L123.825 54.1103C123.388 51.9473 124.794 49.8393 126.957 49.4023C129.073 48.9573 131.228 50.3703 131.665 52.5333L133.242 60.3733C133.68 62.5363 132.274 64.6443 130.111 65.0813C129.845 65.1363 129.58 65.1593 129.315 65.1593Z" fill="white"/>
<path d="M113.447 67.3462C111.589 67.3462 109.918 66.0421 109.535 64.1451L108.145 57.2891C107.707 55.1261 109.105 53.0101 111.269 52.5721C113.455 52.1431 115.548 53.5251 115.985 55.6961L117.375 62.5521C117.812 64.7151 116.415 66.8311 114.251 67.2681C113.978 67.3221 113.713 67.3462 113.447 67.3462Z" fill="white"/>
<path d="M96.3853 63.6601C94.5273 63.6601 92.8553 62.3481 92.4733 60.4511C92.0353 58.2881 93.4333 56.1801 95.6043 55.7431L142.628 46.2401C144.752 45.8031 146.899 47.2001 147.337 49.3711C147.774 51.5341 146.376 53.6421 144.205 54.0791L97.1813 63.5821C96.9163 63.6371 96.6513 63.6601 96.3853 63.6601Z" fill="white"/>
<path d="M96.385 63.66C94.527 63.66 92.855 62.348 92.473 60.451L87.717 36.931C87.279 34.768 88.677 32.66 90.848 32.222C92.964 31.777 95.119 33.191 95.556 35.354L100.312 58.874C100.749 61.037 99.351 63.145 97.18 63.583C96.916 63.637 96.651 63.66 96.385 63.66Z" fill="white"/>
<path d="M91.6305 40.1405C89.7725 40.1405 88.1015 38.8285 87.7185 36.9315C87.2805 34.7685 88.6785 32.6605 90.8495 32.2225L137.881 22.7275C140.005 22.2825 142.152 23.6955 142.59 25.8585C143.028 28.0215 141.63 30.1295 139.459 30.5665L92.4275 40.0625C92.1615 40.1175 91.8955 40.1405 91.6305 40.1405Z" fill="white"/>
<path d="M143.409 54.1575C141.551 54.1575 139.879 52.8455 139.497 50.9485L134.749 27.4365C134.311 25.2735 135.709 23.1655 137.88 22.7275C140.004 22.2825 142.151 23.6955 142.589 25.8585L147.337 49.3705C147.774 51.5335 146.376 53.6415 144.205 54.0785C143.94 54.1335 143.675 54.1575 143.409 54.1575Z" fill="white"/>
<path d="M68.3132 158.825C60.7382 158.825 54.1482 153.429 52.6482 145.995C51.8052 141.81 52.6402 137.538 54.9992 133.985C57.3652 130.424 60.9732 127.996 65.1662 127.152C73.8572 125.442 82.2912 131.19 84.0012 139.67C84.8442 143.856 84.0092 148.127 81.6432 151.688C79.2772 155.241 75.6772 157.662 71.4922 158.505C70.4292 158.724 69.3592 158.825 68.3132 158.825ZM68.3442 134.829C67.8132 134.829 67.2822 134.884 66.7432 134.993C64.6502 135.414 62.8472 136.625 61.6682 138.405C60.4812 140.185 60.0672 142.317 60.4892 144.418C61.3402 148.643 65.4792 151.563 69.9142 150.665C71.9992 150.243 73.8032 149.033 74.9812 147.261C76.1692 145.48 76.5822 143.349 76.1612 141.248C75.4112 137.531 72.1242 134.829 68.3442 134.829Z" fill="white"/>
<path d="M3.99223 131.276C2.13423 131.276 0.463232 129.964 0.0802319 128.067C-0.357768 125.904 1.04123 123.796 3.21123 123.359L73.7552 109.108C75.8792 108.679 78.0262 110.068 78.4632 112.239C78.9002 114.402 77.5032 116.51 75.3322 116.948L4.78823 131.198C4.52323 131.253 4.25723 131.276 3.99223 131.276Z" fill="white"/>
<path d="M32.2591 150.04C30.4011 150.04 28.7301 148.728 28.3471 146.839C27.9101 144.668 29.3081 142.56 31.4711 142.122L47.1431 138.952C49.3301 138.507 51.4221 139.92 51.8601 142.075C52.2971 144.246 50.899 146.354 48.736 146.792L33.064 149.962C32.791 150.017 32.5251 150.04 32.2591 150.04Z" fill="white"/>
<path d="M32.2672 150.04C31.5022 150.04 30.7372 149.822 30.0582 149.377L1.79019 130.612C-0.052809 129.386 -0.551809 126.903 0.666191 125.068C1.89219 123.209 4.38319 122.756 6.21019 123.943L34.4782 142.708C36.3212 143.934 36.8212 146.417 35.6032 148.252C34.8292 149.416 33.5562 150.04 32.2672 150.04Z" fill="white"/>
<path d="M10.2471 121.851C8.38911 121.851 6.71811 120.539 6.33511 118.642L1.58711 95.1304C1.14911 92.9674 2.54711 90.8594 4.71811 90.4224C6.85011 90.0004 8.98911 91.3824 9.42611 93.5534L14.1741 117.065C14.6121 119.228 13.2141 121.336 11.0431 121.773C10.7781 121.827 10.5121 121.851 10.2471 121.851Z" fill="white"/>
<path d="M5.49928 98.3392C3.64128 98.3392 1.96928 97.0271 1.58728 95.1301C1.14928 92.9671 2.55528 90.8591 4.71828 90.4221L20.3903 87.2592C22.5303 86.8142 24.6613 88.2281 25.0993 90.3911C25.5363 92.5541 24.1303 94.6621 21.9683 95.0991L6.29628 98.2621C6.03028 98.3161 5.76428 98.3392 5.49928 98.3392Z" fill="white"/>
<path d="M25.927 118.681C24.068 118.681 22.397 117.369 22.014 115.479L17.259 91.9752C16.821 89.8042 18.219 87.6962 20.382 87.2582C22.561 86.8132 24.661 88.2272 25.099 90.3822L29.854 113.886C30.291 116.057 28.894 118.165 26.73 118.603C26.458 118.657 26.192 118.681 25.927 118.681Z" fill="white"/>
<path d="M299.861 175.208C297.644 175.208 295.863 173.42 295.863 171.21C295.863 162.394 288.679 155.218 279.871 155.218C271.048 155.218 263.879 162.394 263.879 171.21C263.879 173.42 262.087 175.208 259.877 175.208C257.667 175.208 255.879 173.42 255.879 171.21C255.879 157.982 266.644 147.222 279.871 147.222C293.1 147.222 303.86 157.982 303.86 171.21C303.86 173.42 302.064 175.208 299.861 175.208Z" fill="white"/>
<path d="M299.861 187.202H259.877C257.667 187.202 255.879 185.414 255.879 183.204C255.879 180.994 257.667 179.206 259.877 179.206H299.861C302.064 179.206 303.86 180.994 303.86 183.204C303.86 185.414 302.064 187.202 299.861 187.202Z" fill="white"/>
<path d="M259.877 195.198C257.667 195.198 255.879 193.41 255.879 191.2V183.204C255.879 180.994 257.667 179.206 259.877 179.206C262.087 179.206 263.879 180.994 263.879 183.204V191.2C263.879 193.41 262.087 195.198 259.877 195.198Z" fill="white"/>
<path d="M299.861 195.198C297.644 195.198 295.863 193.41 295.863 191.2V183.204C295.863 180.994 297.644 179.206 299.861 179.206C302.064 179.206 303.86 180.994 303.86 183.204V191.2C303.86 193.41 302.064 195.198 299.861 195.198Z" fill="white"/>
<path d="M299.861 203.194H259.877C257.667 203.194 255.879 201.406 255.879 199.196C255.879 196.986 257.667 195.198 259.877 195.198H299.861C302.064 195.198 303.86 196.986 303.86 199.196C303.86 201.406 302.064 203.194 299.861 203.194Z" fill="white"/>
<path d="M259.877 211.191C257.667 211.191 255.879 209.403 255.879 207.193V199.197C255.879 196.987 257.667 195.199 259.877 195.199C262.087 195.199 263.879 196.987 263.879 199.197V207.193C263.879 209.402 262.087 211.191 259.877 211.191Z" fill="white"/>
<path d="M299.861 211.191C297.644 211.191 295.863 209.403 295.863 207.193V199.197C295.863 196.987 297.644 195.199 299.861 195.199C302.064 195.199 303.86 196.987 303.86 199.197V207.193C303.86 209.402 302.064 211.191 299.861 211.191Z" fill="white"/>
<path d="M251.88 203.194H235.888C233.678 203.194 231.89 201.406 231.89 199.196C231.89 196.986 233.678 195.198 235.888 195.198H251.88C254.09 195.198 255.878 196.986 255.878 199.196C255.878 201.406 254.09 203.194 251.88 203.194Z" fill="white"/>
<path d="M283.869 411.095C281.652 411.095 279.871 409.307 279.871 407.097V239.178C279.871 236.967 281.652 235.18 283.869 235.18C286.072 235.18 287.867 236.967 287.867 239.178V407.097C287.867 409.307 286.072 411.095 283.869 411.095Z" fill="white"/>
<path d="M267.877 411.095C265.66 411.095 263.879 409.307 263.879 407.097V239.178C263.879 236.967 265.66 235.18 267.877 235.18C270.079 235.18 271.875 236.967 271.875 239.178V407.097C271.875 409.307 270.079 411.095 267.877 411.095Z" fill="white"/>
<path d="M171.919 411.095C171.341 411.095 170.755 410.97 170.201 410.704C168.21 409.76 167.359 407.37 168.311 405.379L248.273 237.459C249.218 235.46 251.615 234.609 253.598 235.569C255.59 236.514 256.441 238.904 255.488 240.895L175.527 408.814C174.847 410.251 173.411 411.095 171.919 411.095Z" fill="white"/>
<path d="M155.927 411.095C155.349 411.095 154.763 410.97 154.209 410.704C152.218 409.76 151.367 407.37 152.319 405.379L232.281 237.459C233.226 235.46 235.623 234.609 237.606 235.569C239.597 236.514 240.449 238.904 239.496 240.895L159.535 408.814C158.855 410.251 157.419 411.095 155.927 411.095Z" fill="white"/>
<path d="M395.816 411.095C394.316 411.095 392.879 410.251 392.208 408.815L312.246 240.896C311.294 238.905 312.137 236.515 314.137 235.57C316.104 234.61 318.51 235.461 319.462 237.46L399.424 405.38C400.376 407.371 399.518 409.761 397.533 410.705C396.971 410.97 396.393 411.095 395.816 411.095Z" fill="white"/>
<path d="M379.823 411.095C378.324 411.095 376.887 410.251 376.216 408.815L296.254 240.896C295.302 238.905 296.145 236.515 298.145 235.57C300.112 234.61 302.517 235.461 303.47 237.46L383.432 405.38C384.384 407.371 383.526 409.761 381.541 410.705C380.979 410.97 380.401 411.095 379.823 411.095Z" fill="white"/>
<path d="M323.85 219.187H227.892C225.682 219.187 223.894 217.399 223.894 215.189C223.894 212.979 225.682 211.191 227.892 211.191H323.85C326.052 211.191 327.848 212.979 327.848 215.189C327.848 217.399 326.052 219.187 323.85 219.187Z" fill="white"/>
<path d="M323.85 235.18C321.632 235.18 319.852 233.391 319.852 231.182C319.852 228.971 321.632 227.184 323.85 227.184C326.052 227.184 327.848 225.387 327.848 223.185C327.848 220.983 326.052 219.187 323.85 219.187C321.632 219.187 319.852 217.399 319.852 215.189C319.852 212.979 321.632 211.191 323.85 211.191C330.456 211.191 335.844 216.571 335.844 223.185C335.844 229.799 330.457 235.18 323.85 235.18Z" fill="white"/>
<path d="M227.892 235.18C221.278 235.18 215.898 229.799 215.898 223.185C215.898 216.571 221.278 211.191 227.892 211.191C230.102 211.191 231.89 212.979 231.89 215.189C231.89 217.399 230.102 219.187 227.892 219.187C225.69 219.187 223.894 220.983 223.894 223.185C223.894 225.387 225.69 227.184 227.892 227.184C230.102 227.184 231.89 228.971 231.89 231.182C231.89 233.391 230.102 235.18 227.892 235.18Z" fill="white"/>
<path d="M323.85 235.18H227.892C225.682 235.18 223.894 233.391 223.894 231.182C223.894 228.971 225.682 227.184 227.892 227.184H323.85C326.052 227.184 327.848 228.971 327.848 231.182C327.848 233.391 326.052 235.18 323.85 235.18Z" fill="white"/>
<path d="M339.842 371.113H299.861C297.644 371.113 295.863 369.326 295.863 367.115C295.863 364.906 297.644 363.117 299.861 363.117H339.842C342.044 363.117 343.84 364.906 343.84 367.115C343.84 369.326 342.045 371.113 339.842 371.113Z" fill="white"/>
<path d="M251.88 371.113H211.9C209.69 371.113 207.902 369.326 207.902 367.115C207.902 364.906 209.69 363.117 211.9 363.117H251.88C254.09 363.117 255.878 364.906 255.878 367.115C255.879 369.326 254.09 371.113 251.88 371.113Z" fill="white"/>
<path d="M235.888 143.887C234.061 143.887 232.413 142.637 231.992 140.787L227.9 122.968C227.408 120.813 228.751 118.665 230.899 118.173C233.109 117.657 235.202 119.024 235.693 121.172L239.785 138.992C240.277 141.147 238.934 143.295 236.787 143.786C236.482 143.856 236.177 143.887 235.888 143.887Z" fill="white"/>
<path d="M315.854 127.754C314.011 127.754 312.355 126.489 311.95 124.623L307.982 106.772C307.499 104.617 308.857 102.485 311.012 102.001C313.199 101.532 315.307 102.891 315.791 105.039L319.758 122.89C320.226 125.045 318.867 127.177 316.712 127.661C316.431 127.723 316.134 127.754 315.854 127.754Z" fill="white"/>
<path d="M299.861 155.218C297.644 155.218 295.863 153.43 295.863 151.22V136.657C295.863 134.447 297.644 132.659 299.861 132.659C302.064 132.659 303.86 134.447 303.86 136.657V151.22C303.86 153.43 302.064 155.218 299.861 155.218Z" fill="white"/>
<path d="M259.877 155.218C257.667 155.218 255.879 153.43 255.879 151.22V143.934C255.879 141.725 257.667 139.936 259.877 139.936C262.087 139.936 263.879 141.725 263.879 143.934V151.22C263.879 153.43 262.087 155.218 259.877 155.218Z" fill="white"/>
<path d="M147.931 203.194C146.369 203.194 144.878 202.273 144.237 200.735C143.394 198.697 144.354 196.354 146.392 195.503L242.346 155.523C244.368 154.711 246.727 155.632 247.577 157.678C248.421 159.716 247.46 162.059 245.422 162.91L149.468 202.89C148.969 203.093 148.446 203.194 147.931 203.194Z" fill="white"/>
</svg>
